<svg width="500" height="295" viewBox="0 0 500 295" fill="none" xmlns="http://www.w3.org/2000/svg">
<rect width="500" height="295" fill="#A2A2A2"/>
<path d="M275 128.75C275 139.105 266.605 147.5 256.25 147.5C245.895 147.5 237.5 139.105 237.5 128.75C237.5 118.395 245.895 110 256.25 110C266.605 110 275 118.395 275 128.75Z" fill="#817C7D"/>
<path fill-rule="evenodd" clip-rule="evenodd" d="M125 222.498V110C125 89.2893 141.789 72.5 162.5 72.5H287.5C308.211 72.5 325 89.2893 325 110V197.5H337.5C344.404 197.5 350 191.904 350 185V72.5C350 65.5964 344.404 60 337.5 60H177.134C182.282 45.4351 196.172 35 212.5 35H337.5C358.211 35 375 51.7893 375 72.5V185C375 205.711 358.211 222.5 337.5 222.5H325C325 243.211 308.211 260 287.5 260H162.5C141.789 260 125 243.209 125 222.498ZM300 142.322V110C300 103.096 294.404 97.5 287.5 97.5H162.5C155.596 97.5 150 103.096 150 110V192.322L173.484 168.839C188.128 154.194 211.872 154.194 226.517 168.839L241.161 183.484C246.043 188.365 253.957 188.365 258.839 183.483L300 142.322ZM150.791 226.886L191.161 186.516C196.043 181.635 203.957 181.635 208.839 186.517L223.484 201.161C238.128 215.806 261.872 215.806 276.517 201.161L300 177.678V222.5C300 229.404 294.404 235 287.5 235H162.5C157.14 235 152.568 231.626 150.791 226.886Z" fill="#817C7D"/>
</svg>
