<svg width="97" height="8" viewBox="0 0 97 8" fill="none" xmlns="http://www.w3.org/2000/svg">
<path d="M2.093 5.584C1.75233 5.584 1.449 5.50933 1.183 5.36C0.921667 5.206 0.716333 4.99367 0.567 4.723C0.417667 4.45233 0.343 4.13733 0.343 3.778C0.343 3.414 0.415333 3.09433 0.56 2.819C0.709333 2.54367 0.914667 2.329 1.176 2.175C1.442 2.021 1.75 1.944 2.1 1.944C2.44067 1.944 2.737 2.021 2.989 2.175C3.241 2.32433 3.437 2.525 3.577 2.777C3.717 3.029 3.787 3.30667 3.787 3.61C3.787 3.65667 3.78467 3.708 3.78 3.764C3.78 3.81533 3.77767 3.87367 3.773 3.939H1.071C1.09433 4.275 1.204 4.53167 1.4 4.709C1.60067 4.88167 1.83167 4.968 2.093 4.968C2.303 4.968 2.478 4.92133 2.618 4.828C2.76267 4.73 2.87 4.59933 2.94 4.436H3.682C3.58867 4.76267 3.402 5.03567 3.122 5.255C2.84667 5.47433 2.50367 5.584 2.093 5.584ZM2.093 2.553C1.84567 2.553 1.62633 2.62767 1.435 2.777C1.24367 2.92167 1.127 3.141 1.085 3.435H3.045C3.031 3.16433 2.93533 2.94967 2.758 2.791C2.58067 2.63233 2.359 2.553 2.093 2.553ZM6.13889 5.584C5.80289 5.584 5.50656 5.50467 5.24989 5.346C4.99322 5.18733 4.79256 4.97033 4.64789 4.695C4.50322 4.41967 4.43089 4.107 4.43089 3.757C4.43089 3.407 4.50322 3.09667 4.64789 2.826C4.79256 2.55067 4.99322 2.336 5.24989 2.182C5.51122 2.02333 5.80989 1.944 6.14589 1.944C6.42122 1.944 6.66156 1.99767 6.86689 2.105C7.07689 2.21233 7.24022 2.364 7.35689 2.56V0.46H8.09889V5.5H7.43389L7.35689 4.961C7.24489 5.12433 7.09089 5.269 6.89489 5.395C6.69889 5.521 6.44689 5.584 6.13889 5.584ZM6.27189 4.94C6.58922 4.94 6.84822 4.83033 7.04889 4.611C7.25422 4.39167 7.35689 4.10933 7.35689 3.764C7.35689 3.414 7.25422 3.13167 7.04889 2.917C6.84822 2.69767 6.58922 2.588 6.27189 2.588C5.95456 2.588 5.69322 2.69767 5.48789 2.917C5.28256 3.13167 5.17989 3.414 5.17989 3.764C5.17989 3.99267 5.22656 4.19567 5.31989 4.373C5.41322 4.55033 5.54156 4.69033 5.70489 4.793C5.87289 4.891 6.06189 4.94 6.27189 4.94ZM10.6584 5.584C10.3271 5.584 10.0284 5.50933 9.76243 5.36C9.5011 5.206 9.29343 4.99367 9.13943 4.723C8.98543 4.44767 8.90843 4.128 8.90843 3.764C8.90843 3.4 8.98543 3.08267 9.13943 2.812C9.2981 2.53667 9.51043 2.32433 9.77643 2.175C10.0424 2.021 10.3388 1.944 10.6654 1.944C10.9968 1.944 11.2931 2.021 11.5544 2.175C11.8204 2.32433 12.0304 2.53667 12.1844 2.812C12.3431 3.08267 12.4224 3.4 12.4224 3.764C12.4224 4.128 12.3431 4.44767 12.1844 4.723C12.0304 4.99367 11.8204 5.206 11.5544 5.36C11.2884 5.50933 10.9898 5.584 10.6584 5.584ZM10.6584 4.947C10.8358 4.947 10.9991 4.90267 11.1484 4.814C11.3024 4.72533 11.4261 4.59467 11.5194 4.422C11.6128 4.24467 11.6594 4.02533 11.6594 3.764C11.6594 3.50267 11.6128 3.28567 11.5194 3.113C11.4308 2.93567 11.3094 2.80267 11.1554 2.714C11.0061 2.62533 10.8428 2.581 10.6654 2.581C10.4881 2.581 10.3224 2.62533 10.1684 2.714C10.0191 2.80267 9.89776 2.93567 9.80443 3.113C9.7111 3.28567 9.66443 3.50267 9.66443 3.764C9.66443 4.02533 9.7111 4.24467 9.80443 4.422C9.89776 4.59467 10.0191 4.72533 10.1684 4.814C10.3178 4.90267 10.4811 4.947 10.6584 4.947ZM14.5059 5.584C14.0859 5.584 13.7545 5.45333 13.5119 5.192C13.2739 4.93067 13.1549 4.541 13.1549 4.023V2.028H13.8969V3.946C13.8969 4.618 14.1722 4.954 14.7229 4.954C14.9982 4.954 15.2245 4.856 15.4019 4.66C15.5792 4.464 15.6679 4.184 15.6679 3.82V2.028H16.4099V5.5H15.7519L15.6959 4.891C15.5885 5.10567 15.4299 5.276 15.2199 5.402C15.0145 5.52333 14.7765 5.584 14.5059 5.584ZM18.5298 5.584C18.2358 5.584 17.9931 5.535 17.8018 5.437C17.6104 5.339 17.4681 5.21067 17.3748 5.052C17.2814 4.88867 17.2348 4.71133 17.2348 4.52C17.2348 4.184 17.3654 3.918 17.6268 3.722C17.8881 3.526 18.2614 3.428 18.7468 3.428H19.6568V3.365C19.6568 3.09433 19.5821 2.89133 19.4328 2.756C19.2881 2.62067 19.0991 2.553 18.8658 2.553C18.6604 2.553 18.4808 2.60433 18.3268 2.707C18.1774 2.805 18.0864 2.952 18.0538 3.148H17.3118C17.3351 2.896 17.4191 2.68133 17.5638 2.504C17.7131 2.322 17.8998 2.18433 18.1238 2.091C18.3524 1.993 18.6021 1.944 18.8728 1.944C19.3581 1.944 19.7338 2.07233 19.9998 2.329C20.2658 2.581 20.3988 2.92633 20.3988 3.365V5.5H19.7548L19.6918 4.905C19.5938 5.09633 19.4514 5.25733 19.2648 5.388C19.0781 5.51867 18.8331 5.584 18.5298 5.584ZM18.6768 4.982C18.8774 4.982 19.0454 4.93533 19.1808 4.842C19.3208 4.744 19.4281 4.61567 19.5028 4.457C19.5821 4.29833 19.6311 4.12333 19.6498 3.932H18.8238C18.5298 3.932 18.3198 3.98333 18.1938 4.086C18.0724 4.18867 18.0118 4.317 18.0118 4.471C18.0118 4.62967 18.0701 4.75567 18.1868 4.849C18.3081 4.93767 18.4714 4.982 18.6768 4.982ZM21.2639 5.5V2.028H21.9289L21.9919 2.686C22.1133 2.45733 22.2813 2.27767 22.4959 2.147C22.7153 2.01167 22.9789 1.944 23.2869 1.944V2.721H23.0839C22.8786 2.721 22.6943 2.756 22.5309 2.826C22.3723 2.89133 22.2439 3.00567 22.1459 3.169C22.0526 3.32767 22.0059 3.54933 22.0059 3.834V5.5H21.2639ZM25.4094 5.584C25.0734 5.584 24.7771 5.50467 24.5204 5.346C24.2637 5.18733 24.0631 4.97033 23.9184 4.695C23.7737 4.41967 23.7014 4.107 23.7014 3.757C23.7014 3.407 23.7737 3.09667 23.9184 2.826C24.0631 2.55067 24.2637 2.336 24.5204 2.182C24.7817 2.02333 25.0804 1.944 25.4164 1.944C25.6917 1.944 25.9321 1.99767 26.1374 2.105C26.3474 2.21233 26.5107 2.364 26.6274 2.56V0.46H27.3694V5.5H26.7044L26.6274 4.961C26.5154 5.12433 26.3614 5.269 26.1654 5.395C25.9694 5.521 25.7174 5.584 25.4094 5.584ZM25.5424 4.94C25.8597 4.94 26.1187 4.83033 26.3194 4.611C26.5247 4.39167 26.6274 4.10933 26.6274 3.764C26.6274 3.414 26.5247 3.13167 26.3194 2.917C26.1187 2.69767 25.8597 2.588 25.5424 2.588C25.2251 2.588 24.9637 2.69767 24.7584 2.917C24.5531 3.13167 24.4504 3.414 24.4504 3.764C24.4504 3.99267 24.4971 4.19567 24.5904 4.373C24.6837 4.55033 24.8121 4.69033 24.9754 4.793C25.1434 4.891 25.3324 4.94 25.5424 4.94ZM28.5989 5.542C28.4589 5.542 28.3423 5.49767 28.2489 5.409C28.1603 5.31567 28.1159 5.206 28.1159 5.08C28.1159 4.94933 28.1603 4.83967 28.2489 4.751C28.3423 4.65767 28.4589 4.611 28.5989 4.611C28.7389 4.611 28.8533 4.65767 28.9419 4.751C29.0306 4.83967 29.0749 4.94933 29.0749 5.08C29.0749 5.206 29.0306 5.31567 28.9419 5.409C28.8533 5.49767 28.7389 5.542 28.5989 5.542ZM31.4045 5.584C31.0685 5.584 30.7722 5.50467 30.5155 5.346C30.2588 5.18733 30.0582 4.97033 29.9135 4.695C29.7688 4.41967 29.6965 4.107 29.6965 3.757C29.6965 3.407 29.7688 3.09667 29.9135 2.826C30.0582 2.55067 30.2588 2.336 30.5155 2.182C30.7768 2.02333 31.0755 1.944 31.4115 1.944C31.6868 1.944 31.9272 1.99767 32.1325 2.105C32.3425 2.21233 32.5058 2.364 32.6225 2.56V0.46H33.3645V5.5H32.6995L32.6225 4.961C32.5105 5.12433 32.3565 5.269 32.1605 5.395C31.9645 5.521 31.7125 5.584 31.4045 5.584ZM31.5375 4.94C31.8548 4.94 32.1138 4.83033 32.3145 4.611C32.5198 4.39167 32.6225 4.10933 32.6225 3.764C32.6225 3.414 32.5198 3.13167 32.3145 2.917C32.1138 2.69767 31.8548 2.588 31.5375 2.588C31.2202 2.588 30.9588 2.69767 30.7535 2.917C30.5482 3.13167 30.4455 3.414 30.4455 3.764C30.4455 3.99267 30.4922 4.19567 30.5855 4.373C30.6788 4.55033 30.8072 4.69033 30.9705 4.793C31.1385 4.891 31.3275 4.94 31.5375 4.94ZM35.9241 5.584C35.5834 5.584 35.2801 5.50933 35.0141 5.36C34.7527 5.206 34.5474 4.99367 34.3981 4.723C34.2487 4.45233 34.1741 4.13733 34.1741 3.778C34.1741 3.414 34.2464 3.09433 34.3911 2.819C34.5404 2.54367 34.7457 2.329 35.0071 2.175C35.2731 2.021 35.5811 1.944 35.9311 1.944C36.2717 1.944 36.5681 2.021 36.8201 2.175C37.0721 2.32433 37.2681 2.525 37.4081 2.777C37.5481 3.029 37.6181 3.30667 37.6181 3.61C37.6181 3.65667 37.6157 3.708 37.6111 3.764C37.6111 3.81533 37.6087 3.87367 37.6041 3.939H34.9021C34.9254 4.275 35.0351 4.53167 35.2311 4.709C35.4317 4.88167 35.6627 4.968 35.9241 4.968C36.1341 4.968 36.3091 4.92133 36.4491 4.828C36.5937 4.73 36.7011 4.59933 36.7711 4.436H37.5131C37.4197 4.76267 37.2331 5.03567 36.9531 5.255C36.6777 5.47433 36.3347 5.584 35.9241 5.584ZM35.9241 2.553C35.6767 2.553 35.4574 2.62767 35.2661 2.777C35.0747 2.92167 34.9581 3.141 34.9161 3.435H36.8761C36.8621 3.16433 36.7664 2.94967 36.5891 2.791C36.4117 2.63233 36.1901 2.553 35.9241 2.553ZM39.7739 5.584C39.3353 5.584 38.9736 5.47667 38.6889 5.262C38.4043 5.04733 38.2409 4.76267 38.1989 4.408H38.9479C38.9853 4.56667 39.0739 4.70433 39.2139 4.821C39.3539 4.933 39.5383 4.989 39.7669 4.989C39.9909 4.989 40.1543 4.94233 40.2569 4.849C40.3596 4.75567 40.4109 4.64833 40.4109 4.527C40.4109 4.34967 40.3386 4.23067 40.1939 4.17C40.0539 4.10467 39.8579 4.04633 39.6059 3.995C39.4099 3.953 39.2139 3.897 39.0179 3.827C38.8266 3.757 38.6656 3.659 38.5349 3.533C38.4089 3.40233 38.3459 3.22733 38.3459 3.008C38.3459 2.70467 38.4626 2.45267 38.6959 2.252C38.9293 2.04667 39.2559 1.944 39.6759 1.944C40.0633 1.944 40.3759 2.03733 40.6139 2.224C40.8566 2.41067 40.9989 2.67433 41.0409 3.015H40.3269C40.3036 2.86567 40.2336 2.749 40.1169 2.665C40.0049 2.581 39.8533 2.539 39.6619 2.539C39.4753 2.539 39.3306 2.57867 39.2279 2.658C39.1253 2.73267 39.0739 2.83067 39.0739 2.952C39.0739 3.07333 39.1439 3.169 39.2839 3.239C39.4286 3.309 39.6176 3.372 39.8509 3.428C40.0843 3.47933 40.2989 3.54 40.4949 3.61C40.6956 3.67533 40.8566 3.77333 40.9779 3.904C41.0993 4.03467 41.1599 4.226 41.1599 4.478C41.1646 4.79533 41.0409 5.059 40.7889 5.269C40.5416 5.479 40.2033 5.584 39.7739 5.584ZM43.391 4.436C43.209 4.436 43.041 4.415 42.887 4.373L42.586 4.667C42.6373 4.69967 42.7003 4.72767 42.775 4.751C42.8496 4.77433 42.9546 4.79533 43.09 4.814C43.2253 4.83267 43.4096 4.85133 43.643 4.87C44.105 4.912 44.4386 5.024 44.644 5.206C44.8493 5.38333 44.952 5.62133 44.952 5.92C44.952 6.12533 44.896 6.319 44.784 6.501C44.6766 6.68767 44.5063 6.837 44.273 6.949C44.0443 7.06567 43.7503 7.124 43.391 7.124C42.9056 7.124 42.5113 7.03067 42.208 6.844C41.9093 6.662 41.76 6.38433 41.76 6.011C41.76 5.86633 41.7973 5.72167 41.872 5.577C41.9513 5.437 42.075 5.304 42.243 5.178C42.145 5.136 42.0586 5.09167 41.984 5.045C41.914 4.99367 41.851 4.94233 41.795 4.891V4.723L42.397 4.107C42.1263 3.87367 41.991 3.568 41.991 3.19C41.991 2.96133 42.0446 2.75367 42.152 2.567C42.264 2.37567 42.425 2.224 42.635 2.112C42.845 2 43.097 1.944 43.391 1.944C43.587 1.944 43.769 1.972 43.937 2.028H45.232V2.518L44.616 2.553C44.728 2.74433 44.784 2.95667 44.784 3.19C44.784 3.42333 44.728 3.63333 44.616 3.82C44.5086 4.00667 44.35 4.156 44.14 4.268C43.9346 4.38 43.685 4.436 43.391 4.436ZM43.391 3.855C43.6056 3.855 43.7783 3.799 43.909 3.687C44.0443 3.57033 44.112 3.407 44.112 3.197C44.112 2.98233 44.0443 2.819 43.909 2.707C43.7783 2.595 43.6056 2.539 43.391 2.539C43.1716 2.539 42.9943 2.595 42.859 2.707C42.7283 2.819 42.663 2.98233 42.663 3.197C42.663 3.407 42.7283 3.57033 42.859 3.687C42.9943 3.799 43.1716 3.855 43.391 3.855ZM42.46 5.941C42.46 6.14167 42.5486 6.291 42.726 6.389C42.9033 6.49167 43.125 6.543 43.391 6.543C43.6476 6.543 43.8553 6.487 44.014 6.375C44.1726 6.26767 44.252 6.123 44.252 5.941C44.252 5.80567 44.1983 5.689 44.091 5.591C43.9836 5.49767 43.7806 5.43933 43.482 5.416C43.258 5.402 43.0596 5.381 42.887 5.353C42.7236 5.44167 42.6116 5.53733 42.551 5.64C42.4903 5.74267 42.46 5.843 42.46 5.941ZM45.8938 5.5V2.028H46.5588L46.6218 2.686C46.7431 2.45733 46.9111 2.27767 47.1258 2.147C47.3451 2.01167 47.6088 1.944 47.9168 1.944V2.721H47.7138C47.5085 2.721 47.3241 2.756 47.1608 2.826C47.0021 2.89133 46.8738 3.00567 46.7758 3.169C46.6825 3.32767 46.6358 3.54933 46.6358 3.834V5.5H45.8938ZM50.0813 5.584C49.7406 5.584 49.4373 5.50933 49.1713 5.36C48.9099 5.206 48.7046 4.99367 48.5553 4.723C48.4059 4.45233 48.3313 4.13733 48.3313 3.778C48.3313 3.414 48.4036 3.09433 48.5483 2.819C48.6976 2.54367 48.9029 2.329 49.1643 2.175C49.4303 2.021 49.7383 1.944 50.0883 1.944C50.4289 1.944 50.7253 2.021 50.9773 2.175C51.2293 2.32433 51.4253 2.525 51.5653 2.777C51.7053 3.029 51.7753 3.30667 51.7753 3.61C51.7753 3.65667 51.7729 3.708 51.7683 3.764C51.7683 3.81533 51.7659 3.87367 51.7613 3.939H49.0593C49.0826 4.275 49.1923 4.53167 49.3883 4.709C49.5889 4.88167 49.8199 4.968 50.0813 4.968C50.2913 4.968 50.4663 4.92133 50.6063 4.828C50.7509 4.73 50.8583 4.59933 50.9283 4.436H51.6703C51.5769 4.76267 51.3903 5.03567 51.1103 5.255C50.8349 5.47433 50.4919 5.584 50.0813 5.584ZM50.0813 2.553C49.8339 2.553 49.6146 2.62767 49.4233 2.777C49.2319 2.92167 49.1153 3.141 49.0733 3.435H51.0333C51.0193 3.16433 50.9236 2.94967 50.7463 2.791C50.5689 2.63233 50.3473 2.553 50.0813 2.553ZM54.1692 5.584C53.8285 5.584 53.5252 5.50933 53.2592 5.36C52.9978 5.206 52.7925 4.99367 52.6432 4.723C52.4938 4.45233 52.4192 4.13733 52.4192 3.778C52.4192 3.414 52.4915 3.09433 52.6362 2.819C52.7855 2.54367 52.9908 2.329 53.2522 2.175C53.5182 2.021 53.8262 1.944 54.1762 1.944C54.5168 1.944 54.8132 2.021 55.0652 2.175C55.3172 2.32433 55.5132 2.525 55.6532 2.777C55.7932 3.029 55.8632 3.30667 55.8632 3.61C55.8632 3.65667 55.8608 3.708 55.8562 3.764C55.8562 3.81533 55.8538 3.87367 55.8492 3.939H53.1472C53.1705 4.275 53.2802 4.53167 53.4762 4.709C53.6768 4.88167 53.9078 4.968 54.1692 4.968C54.3792 4.968 54.5542 4.92133 54.6942 4.828C54.8388 4.73 54.9462 4.59933 55.0162 4.436H55.7582C55.6648 4.76267 55.4782 5.03567 55.1982 5.255C54.9228 5.47433 54.5798 5.584 54.1692 5.584ZM54.1692 2.553C53.9218 2.553 53.7025 2.62767 53.5112 2.777C53.3198 2.92167 53.2032 3.141 53.1612 3.435H55.1212C55.1072 3.16433 55.0115 2.94967 54.8342 2.791C54.6568 2.63233 54.4352 2.553 54.1692 2.553ZM59.2231 6.942C58.7144 6.942 58.2687 6.844 57.8861 6.648C57.5081 6.452 57.2117 6.17433 56.9971 5.815C56.7871 5.46033 56.6821 5.04033 56.6821 4.555C56.6821 4.04633 56.7707 3.575 56.9481 3.141C57.1254 2.707 57.3751 2.32667 57.6971 2C58.0191 1.67333 58.3971 1.42133 58.8311 1.244C59.2651 1.062 59.7411 0.971 60.2591 0.971C60.7911 0.971 61.2507 1.07133 61.6381 1.272C62.0254 1.47267 62.3241 1.75267 62.5341 2.112C62.7487 2.47133 62.8561 2.88433 62.8561 3.351C62.8561 3.62633 62.8211 3.89467 62.7511 4.156C62.6811 4.41733 62.5784 4.653 62.4431 4.863C62.3124 5.06833 62.1491 5.234 61.9531 5.36C61.7617 5.48133 61.5401 5.542 61.2881 5.542C61.0501 5.542 60.8634 5.486 60.7281 5.374C60.5974 5.25733 60.5181 5.101 60.4901 4.905C60.3501 5.10567 60.1704 5.262 59.9511 5.374C59.7364 5.486 59.5054 5.542 59.2581 5.542C58.9081 5.542 58.6327 5.437 58.4321 5.227C58.2361 5.01233 58.1381 4.723 58.1381 4.359C58.1381 4.10233 58.1777 3.85733 58.2571 3.624C58.3364 3.386 58.4507 3.176 58.6001 2.994C58.7494 2.80733 58.9244 2.66033 59.1251 2.553C59.3304 2.44567 59.5567 2.392 59.8041 2.392C60.2567 2.392 60.5531 2.57167 60.6931 2.931L60.7771 2.469H61.3931L61.0571 4.401C61.0244 4.59233 61.0314 4.74867 61.0781 4.87C61.1247 4.98667 61.2297 5.045 61.3931 5.045C61.5377 5.045 61.6637 4.99367 61.7711 4.891C61.8831 4.78833 61.9741 4.65533 62.0441 4.492C62.1187 4.32867 62.1747 4.15133 62.2121 3.96C62.2494 3.764 62.2681 3.57267 62.2681 3.386C62.2681 2.79333 62.0837 2.329 61.7151 1.993C61.3464 1.65233 60.8331 1.482 60.1751 1.482C59.7597 1.482 59.3747 1.56133 59.0201 1.72C58.6654 1.874 58.3574 2.08867 58.0961 2.364C57.8347 2.63467 57.6317 2.952 57.4871 3.316C57.3424 3.68 57.2701 4.072 57.2701 4.492C57.2701 5.10333 57.4544 5.577 57.8231 5.913C58.1917 6.25367 58.6957 6.424 59.3351 6.424C59.5404 6.424 59.7434 6.403 59.9441 6.361C60.1494 6.319 60.3407 6.25833 60.5181 6.179L60.6371 6.669C60.2077 6.851 59.7364 6.942 59.2231 6.942ZM59.4891 4.989C59.6711 4.989 59.8391 4.94 59.9931 4.842C60.1471 4.73933 60.2731 4.60167 60.3711 4.429C60.4691 4.25167 60.5274 4.051 60.5461 3.827C60.5694 3.58433 60.5227 3.37667 60.4061 3.204C60.2894 3.03133 60.1051 2.945 59.8531 2.945C59.6384 2.945 59.4517 3.008 59.2931 3.134C59.1344 3.26 59.0131 3.421 58.9291 3.617C58.8451 3.813 58.8031 4.02067 58.8031 4.24C58.8031 4.464 58.8591 4.646 58.9711 4.786C59.0877 4.92133 59.2604 4.989 59.4891 4.989ZM65.266 4.436C65.084 4.436 64.916 4.415 64.762 4.373L64.461 4.667C64.5123 4.69967 64.5753 4.72767 64.65 4.751C64.7246 4.77433 64.8296 4.79533 64.965 4.814C65.1003 4.83267 65.2846 4.85133 65.518 4.87C65.98 4.912 66.3136 5.024 66.519 5.206C66.7243 5.38333 66.827 5.62133 66.827 5.92C66.827 6.12533 66.771 6.319 66.659 6.501C66.5516 6.68767 66.3813 6.837 66.148 6.949C65.9193 7.06567 65.6253 7.124 65.266 7.124C64.7806 7.124 64.3863 7.03067 64.083 6.844C63.7843 6.662 63.635 6.38433 63.635 6.011C63.635 5.86633 63.6723 5.72167 63.747 5.577C63.8263 5.437 63.95 5.304 64.118 5.178C64.02 5.136 63.9336 5.09167 63.859 5.045C63.789 4.99367 63.726 4.94233 63.67 4.891V4.723L64.272 4.107C64.0013 3.87367 63.866 3.568 63.866 3.19C63.866 2.96133 63.9196 2.75367 64.027 2.567C64.139 2.37567 64.3 2.224 64.51 2.112C64.72 2 64.972 1.944 65.266 1.944C65.462 1.944 65.644 1.972 65.812 2.028H67.107V2.518L66.491 2.553C66.603 2.74433 66.659 2.95667 66.659 3.19C66.659 3.42333 66.603 3.63333 66.491 3.82C66.3836 4.00667 66.225 4.156 66.015 4.268C65.8096 4.38 65.56 4.436 65.266 4.436ZM65.266 3.855C65.4806 3.855 65.6533 3.799 65.784 3.687C65.9193 3.57033 65.987 3.407 65.987 3.197C65.987 2.98233 65.9193 2.819 65.784 2.707C65.6533 2.595 65.4806 2.539 65.266 2.539C65.0466 2.539 64.8693 2.595 64.734 2.707C64.6033 2.819 64.538 2.98233 64.538 3.197C64.538 3.407 64.6033 3.57033 64.734 3.687C64.8693 3.799 65.0466 3.855 65.266 3.855ZM64.335 5.941C64.335 6.14167 64.4236 6.291 64.601 6.389C64.7783 6.49167 65 6.543 65.266 6.543C65.5226 6.543 65.7303 6.487 65.889 6.375C66.0476 6.26767 66.127 6.123 66.127 5.941C66.127 5.80567 66.0733 5.689 65.966 5.591C65.8586 5.49767 65.6556 5.43933 65.357 5.416C65.133 5.402 64.9346 5.381 64.762 5.353C64.5986 5.44167 64.4866 5.53733 64.426 5.64C64.3653 5.74267 64.335 5.843 64.335 5.941ZM67.7688 5.5V2.028H68.4268L68.4898 2.518C68.6018 2.34067 68.7488 2.20067 68.9308 2.098C69.1175 1.99533 69.3321 1.944 69.5748 1.944C70.1255 1.944 70.5081 2.161 70.7228 2.595C70.8488 2.39433 71.0168 2.23567 71.2268 2.119C71.4415 2.00233 71.6725 1.944 71.9198 1.944C72.3538 1.944 72.6945 2.07467 72.9418 2.336C73.1891 2.59733 73.3128 2.987 73.3128 3.505V5.5H72.5708V3.582C72.5708 2.91 72.3141 2.574 71.8008 2.574C71.5395 2.574 71.3248 2.672 71.1568 2.868C70.9935 3.064 70.9118 3.344 70.9118 3.708V5.5H70.1698V3.582C70.1698 2.91 69.9108 2.574 69.3928 2.574C69.1361 2.574 68.9238 2.672 68.7558 2.868C68.5925 3.064 68.5108 3.344 68.5108 3.708V5.5H67.7688ZM75.3569 5.584C75.0629 5.584 74.8202 5.535 74.6289 5.437C74.4376 5.339 74.2952 5.21067 74.2019 5.052C74.1086 4.88867 74.0619 4.71133 74.0619 4.52C74.0619 4.184 74.1926 3.918 74.4539 3.722C74.7152 3.526 75.0886 3.428 75.5739 3.428H76.4839V3.365C76.4839 3.09433 76.4092 2.89133 76.2599 2.756C76.1152 2.62067 75.9262 2.553 75.6929 2.553C75.4876 2.553 75.3079 2.60433 75.1539 2.707C75.0046 2.805 74.9136 2.952 74.8809 3.148H74.1389C74.1622 2.896 74.2462 2.68133 74.3909 2.504C74.5402 2.322 74.7269 2.18433 74.9509 2.091C75.1796 1.993 75.4292 1.944 75.6999 1.944C76.1852 1.944 76.5609 2.07233 76.8269 2.329C77.0929 2.581 77.2259 2.92633 77.2259 3.365V5.5H76.5819L76.5189 4.905C76.4209 5.09633 76.2786 5.25733 76.0919 5.388C75.9052 5.51867 75.6602 5.584 75.3569 5.584ZM75.5039 4.982C75.7046 4.982 75.8726 4.93533 76.0079 4.842C76.1479 4.744 76.2552 4.61567 76.3299 4.457C76.4092 4.29833 76.4582 4.12333 76.4769 3.932H75.6509C75.3569 3.932 75.1469 3.98333 75.0209 4.086C74.8996 4.18867 74.8389 4.317 74.8389 4.471C74.8389 4.62967 74.8972 4.75567 75.0139 4.849C75.1352 4.93767 75.2986 4.982 75.5039 4.982ZM78.5111 1.37C78.3711 1.37 78.2544 1.328 78.1611 1.244C78.0724 1.15533 78.0281 1.04567 78.0281 0.915C78.0281 0.784333 78.0724 0.677 78.1611 0.593C78.2544 0.504333 78.3711 0.46 78.5111 0.46C78.6511 0.46 78.7654 0.504333 78.8541 0.593C78.9474 0.677 78.9941 0.784333 78.9941 0.915C78.9941 1.04567 78.9474 1.15533 78.8541 1.244C78.7654 1.328 78.6511 1.37 78.5111 1.37ZM78.1401 5.5V2.028H78.8821V5.5H78.1401ZM79.8616 5.5V0.46H80.6036V5.5H79.8616ZM81.8372 5.542C81.6972 5.542 81.5806 5.49767 81.4872 5.409C81.3986 5.31567 81.3542 5.206 81.3542 5.08C81.3542 4.94933 81.3986 4.83967 81.4872 4.751C81.5806 4.65767 81.6972 4.611 81.8372 4.611C81.9772 4.611 82.0916 4.65767 82.1802 4.751C82.2689 4.83967 82.3132 4.94933 82.3132 5.08C82.3132 5.206 82.2689 5.31567 82.1802 5.409C82.0916 5.49767 81.9772 5.542 81.8372 5.542ZM84.7058 5.584C84.3651 5.584 84.0595 5.507 83.7888 5.353C83.5228 5.199 83.3128 4.98667 83.1588 4.716C83.0095 4.44067 82.9348 4.12333 82.9348 3.764C82.9348 3.40467 83.0095 3.08967 83.1588 2.819C83.3128 2.54367 83.5228 2.329 83.7888 2.175C84.0595 2.021 84.3651 1.944 84.7058 1.944C85.1351 1.944 85.4945 2.056 85.7838 2.28C86.0778 2.504 86.2668 2.80733 86.3508 3.19H85.5738C85.5271 2.99867 85.4245 2.84933 85.2658 2.742C85.1071 2.63467 84.9205 2.581 84.7058 2.581C84.5238 2.581 84.3558 2.62767 84.2018 2.721C84.0478 2.80967 83.9241 2.94267 83.8308 3.12C83.7375 3.29267 83.6908 3.50733 83.6908 3.764C83.6908 4.02067 83.7375 4.23767 83.8308 4.415C83.9241 4.58767 84.0478 4.72067 84.2018 4.814C84.3558 4.90733 84.5238 4.954 84.7058 4.954C84.9205 4.954 85.1071 4.90033 85.2658 4.793C85.4245 4.68567 85.5271 4.534 85.5738 4.338H86.3508C86.2715 4.71133 86.0848 5.01233 85.7908 5.241C85.4968 5.46967 85.1351 5.584 84.7058 5.584ZM88.7795 5.584C88.4482 5.584 88.1495 5.50933 87.8835 5.36C87.6222 5.206 87.4145 4.99367 87.2605 4.723C87.1065 4.44767 87.0295 4.128 87.0295 3.764C87.0295 3.4 87.1065 3.08267 87.2605 2.812C87.4192 2.53667 87.6315 2.32433 87.8975 2.175C88.1635 2.021 88.4599 1.944 88.7865 1.944C89.1179 1.944 89.4142 2.021 89.6755 2.175C89.9415 2.32433 90.1515 2.53667 90.3055 2.812C90.4642 3.08267 90.5435 3.4 90.5435 3.764C90.5435 4.128 90.4642 4.44767 90.3055 4.723C90.1515 4.99367 89.9415 5.206 89.6755 5.36C89.4095 5.50933 89.1109 5.584 88.7795 5.584ZM88.7795 4.947C88.9569 4.947 89.1202 4.90267 89.2695 4.814C89.4235 4.72533 89.5472 4.59467 89.6405 4.422C89.7339 4.24467 89.7805 4.02533 89.7805 3.764C89.7805 3.50267 89.7339 3.28567 89.6405 3.113C89.5519 2.93567 89.4305 2.80267 89.2765 2.714C89.1272 2.62533 88.9639 2.581 88.7865 2.581C88.6092 2.581 88.4435 2.62533 88.2895 2.714C88.1402 2.80267 88.0189 2.93567 87.9255 3.113C87.8322 3.28567 87.7855 3.50267 87.7855 3.764C87.7855 4.02533 87.8322 4.24467 87.9255 4.422C88.0189 4.59467 88.1402 4.72533 88.2895 4.814C88.4389 4.90267 88.6022 4.947 88.7795 4.947ZM91.346 5.5V2.028H92.004L92.067 2.518C92.179 2.34067 92.326 2.20067 92.508 2.098C92.6946 1.99533 92.9093 1.944 93.152 1.944C93.7026 1.944 94.0853 2.161 94.3 2.595C94.426 2.39433 94.594 2.23567 94.804 2.119C95.0186 2.00233 95.2496 1.944 95.497 1.944C95.931 1.944 96.2716 2.07467 96.519 2.336C96.7663 2.59733 96.89 2.987 96.89 3.505V5.5H96.148V3.582C96.148 2.91 95.8913 2.574 95.378 2.574C95.1166 2.574 94.902 2.672 94.734 2.868C94.5706 3.064 94.489 3.344 94.489 3.708V5.5H93.747V3.582C93.747 2.91 93.488 2.574 92.97 2.574C92.7133 2.574 92.501 2.672 92.333 2.868C92.1696 3.064 92.088 3.344 92.088 3.708V5.5H91.346Z" fill="#47516B"/>
</svg>
