<svg width="80" height="80" viewBox="0 0 80 80" fill="none" xmlns="http://www.w3.org/2000/svg">
<g clip-path="url(#clip0_418_634)">
<path d="M61.25 0H18.75C8.39466 0 0 8.39466 0 18.75V61.25C0 71.6053 8.39466 80 18.75 80H61.25C71.6053 80 80 71.6053 80 61.25V18.75C80 8.39466 71.6053 0 61.25 0Z" fill="#CD6799"/>
<path d="M62.5335 43.4885C60.3541 43.4998 58.4604 44.0248 56.8744 44.8004C56.2925 43.6482 55.7107 42.6213 55.6079 41.8682C55.4938 40.9898 55.3569 40.4535 55.4938 39.4038C55.6307 38.3542 56.2469 36.8598 56.2354 36.7457C56.2241 36.6313 56.0985 36.0954 54.8435 36.0838C53.5885 36.0726 52.5047 36.3235 52.3791 36.6545C52.2535 36.9851 52.0141 37.7382 51.8544 38.5142C51.6375 39.6551 49.3441 43.7282 48.0322 45.8617C47.61 45.0288 47.245 44.2985 47.165 43.7167C47.051 42.8382 46.9141 42.302 47.051 41.2523C47.1879 40.2026 47.8041 38.7079 47.7925 38.5938C47.7813 38.4798 47.6557 37.9435 46.4007 37.9323C45.1457 37.9207 44.0616 38.1717 43.9363 38.5026C43.8107 38.8335 43.6738 39.6095 43.4113 40.3623C43.1491 41.1154 40.1029 47.9154 39.3041 49.6723C38.8935 50.5735 38.5397 51.2923 38.2888 51.7829C38.2888 51.7829 38.2772 51.8173 38.2432 51.8742C38.0263 52.2963 37.9007 52.5245 37.9007 52.5245C37.9007 52.5245 37.9007 52.5245 37.9007 52.536C37.7297 52.8442 37.5469 53.1292 37.4557 53.1292C37.3872 53.1292 37.2619 52.3079 37.4785 51.1898C37.935 48.8279 39.0188 45.1542 39.0075 45.0288C39.0075 44.9604 39.2129 44.3213 38.3 43.9904C37.41 43.6595 37.0907 44.2073 37.0107 44.2073C36.931 44.2073 36.8738 44.4013 36.8738 44.4013C36.8738 44.4013 37.8666 40.271 34.98 40.271C33.1772 40.271 30.6901 42.2448 29.4579 44.0248C28.682 44.447 27.0277 45.3482 25.2593 46.3179C24.5861 46.6945 23.8902 47.071 23.2398 47.4248C23.1942 47.3792 23.1486 47.322 23.1029 47.2763C19.6117 43.5454 13.154 40.9101 13.4279 35.9013C13.5305 34.0757 14.158 29.2839 25.8297 23.4652C35.4363 18.7303 43.0807 20.0424 44.4041 22.9518C46.2979 27.1047 40.3082 34.8173 30.382 35.9354C26.5942 36.3576 24.609 34.8973 24.107 34.3498C23.5821 33.7792 23.5023 33.7451 23.3083 33.8592C22.9888 34.0301 23.1942 34.5435 23.3083 34.8401C23.6049 35.616 24.8257 36.9851 26.8908 37.6582C28.7163 38.2517 33.1544 38.5826 38.5282 36.506C44.541 34.1785 49.2416 27.7094 47.861 22.29C46.4807 16.7908 37.3532 14.9767 28.7163 18.0458C23.5821 19.8713 18.0144 22.7464 14.0097 26.4887C9.25208 30.9383 8.49905 34.806 8.80711 36.426C9.9138 42.1763 17.8433 45.9185 21.015 48.691C20.8553 48.7823 20.707 48.8623 20.5815 48.9307C18.9956 49.7179 12.9487 52.8782 11.4426 56.2213C9.73127 60.0092 11.7165 62.7245 13.0285 63.0895C17.1016 64.2192 21.2889 62.1882 23.5365 58.8338C25.7841 55.4795 25.5103 51.1213 24.472 49.1248C24.4606 49.102 24.4492 49.0792 24.4264 49.0563C24.8371 48.8167 25.2593 48.5657 25.67 48.326C26.4801 47.847 27.2787 47.402 27.9633 47.0367C27.5754 48.0979 27.2901 49.3642 27.1532 51.1898C26.9821 53.3348 27.8606 56.1185 29.0129 57.2138C29.5264 57.6929 30.131 57.7045 30.519 57.7045C31.8654 57.7045 32.47 56.5863 33.1432 55.2629C33.9644 53.6426 34.7063 51.7601 34.7063 51.7601C34.7063 51.7601 33.7819 56.8488 36.2919 56.8488C37.2047 56.8488 38.1288 55.6623 38.5397 55.0576C38.5397 55.0688 38.5397 55.0688 38.5397 55.0688C38.5397 55.0688 38.5625 55.0348 38.6082 54.9548C38.6994 54.8063 38.7563 54.7151 38.7563 54.7151C38.7563 54.7151 38.7563 54.7038 38.7563 54.6923C39.1216 54.0535 39.9429 52.6045 41.1638 50.197C42.7382 47.0938 44.2557 43.2148 44.2557 43.2148C44.2557 43.2148 44.3925 44.1617 44.8604 45.736C45.1341 46.6604 45.7047 47.6757 46.161 48.657C45.796 49.1704 45.5679 49.4554 45.5679 49.4554C45.5679 49.4554 45.5679 49.4554 45.5791 49.467C45.2825 49.8548 44.9632 50.277 44.6094 50.6876C43.3657 52.171 41.8825 53.871 41.6772 54.3617C41.4375 54.9435 41.4947 55.3654 41.951 55.7079C42.2819 55.9588 42.875 55.9929 43.4797 55.9588C44.5979 55.8788 45.3854 55.6051 45.7732 55.4338C46.3779 55.2173 47.0854 54.8863 47.7469 54.3957C48.9679 53.4945 49.7094 52.2051 49.641 50.5051C49.6066 49.5695 49.2985 48.6342 48.9222 47.7554C49.0363 47.5957 49.1388 47.436 49.2529 47.2763C51.1813 44.4582 52.6757 41.3663 52.6757 41.3663C52.6757 41.3663 52.8125 42.3132 53.2804 43.8879C53.5085 44.6863 53.9763 45.5535 54.3872 46.3979C52.5732 47.8698 51.455 49.581 51.0557 50.6992C50.3369 52.7757 50.896 53.711 51.9569 53.9279C52.4363 54.0307 53.1207 53.8026 53.6229 53.5857C54.2616 53.3804 55.0147 53.0267 55.7335 52.5017C56.9541 51.6004 58.1294 50.3454 58.061 48.6454C58.0266 47.8698 57.8213 47.1051 57.536 46.3635C59.0763 45.7248 61.0616 45.371 63.5944 45.6676C69.0254 46.3067 70.0979 49.6951 69.8922 51.1213C69.6869 52.5473 68.546 53.3232 68.1694 53.5629C67.7932 53.8026 67.6675 53.8823 67.7019 54.0535C67.7475 54.3045 67.93 54.2929 68.2494 54.2473C68.6944 54.1676 71.1016 53.0951 71.2044 50.471C71.3757 47.1167 68.181 43.4542 62.5335 43.4885ZM20.6385 57.6132C18.8359 59.5754 16.3258 60.3173 15.242 59.6898C14.0782 59.0163 14.5346 56.1185 16.748 54.042C18.0943 52.7757 19.8285 51.6004 20.9808 50.8817C21.2432 50.722 21.6311 50.4938 22.0989 50.2085C22.1788 50.1629 22.2244 50.1401 22.2244 50.1401C22.3157 50.0829 22.407 50.026 22.4982 49.9688C23.3083 52.9354 22.5325 55.5482 20.6385 57.6132ZM33.7591 48.691C33.1316 50.2201 31.8197 54.1332 31.021 53.9167C30.3364 53.7338 29.9143 50.7676 30.884 47.8354C31.3747 46.3635 32.4129 44.6067 33.0175 43.922C33.9988 42.8267 35.0825 42.4617 35.345 42.9067C35.676 43.4885 34.1472 47.7326 33.7591 48.691ZM44.5866 53.871C44.3241 54.0079 44.0732 54.0992 43.9591 54.0307C43.8791 53.9851 44.0732 53.8026 44.0732 53.8026C44.0732 53.8026 45.431 52.342 45.9672 51.6804C46.275 51.2923 46.6404 50.836 47.0282 50.3226C47.0282 50.3682 47.0282 50.4254 47.0282 50.471C47.0282 52.2167 45.3397 53.3917 44.5866 53.871ZM52.9382 51.9654C52.7441 51.8285 52.7785 51.3723 53.4288 49.946C53.6797 49.387 54.2732 48.4517 55.2885 47.5501C55.4025 47.9154 55.4825 48.2688 55.471 48.5998C55.4597 50.802 53.885 51.6232 52.9382 51.9654Z" fill="white"/>
</g>
<defs>
<clipPath id="clip0_418_634">
<rect width="80" height="80" fill="white"/>
</clipPath>
</defs>
</svg>
