<svg width="80" height="80" viewBox="0 0 80 80" fill="none" xmlns="http://www.w3.org/2000/svg">
<g clip-path="url(#clip0_418_625)">
<path d="M61.25 0H18.75C8.39466 0 0 8.39466 0 18.75V61.25C0 71.6053 8.39466 80 18.75 80H61.25C71.6053 80 80 71.6053 80 61.25V18.75C80 8.39466 71.6053 0 61.25 0Z" fill="#9A78C5"/>
<path d="M60.4283 39.6133C63.0214 40.5202 64.3174 42.0741 64.3174 44.2727C64.3174 45.7198 63.7799 46.8685 62.7073 47.718C61.6358 48.5681 60.1073 49.0957 58.1176 49.0957C56.128 49.0957 54.2876 48.5194 52.5925 47.5733C52.6109 47.0716 52.7435 46.5211 52.987 45.9236C53.2305 45.3261 53.5187 44.8514 53.849 44.5046C55.4069 45.314 56.7625 45.7193 57.9133 45.7193C58.4571 45.7193 58.8779 45.6281 59.1708 45.4444C59.4642 45.2613 59.6101 45.0155 59.6101 44.7068C59.6101 44.1264 59.1605 43.6924 58.2641 43.4032L56.6541 42.7952C54.2183 41.9078 53.0003 40.4618 53.0003 38.4533C53.0003 36.9866 53.512 35.8242 54.5352 34.9643C55.5585 34.1056 56.9377 33.3662 58.6719 33.3662C59.5298 33.3662 60.4743 33.4868 61.5079 33.7279C62.5403 33.9696 63.3884 34.5649 64.0511 34.892C64.0902 35.4327 63.9816 36.0262 63.7296 36.6725C63.4758 37.3194 63.1646 37.7775 62.793 38.0479C61.1549 37.3143 59.7917 36.9475 58.6995 36.9475C58.3085 36.9475 58.0139 37.0342 57.8072 37.2087C57.6027 37.3827 57.5022 37.6042 57.5022 37.8746C57.5022 38.3378 57.872 38.7041 58.6133 38.9744L60.4283 39.6133V39.6133Z" fill="#F6F6F6"/>
<path d="M47.4763 39.6133C50.0694 40.5202 51.3649 42.0741 51.3649 44.2727C51.3649 45.7198 50.8274 46.8685 49.7565 47.718C48.6839 48.5681 47.1548 49.0957 45.1657 49.0957C43.1778 49.0957 41.3351 48.5194 39.6406 47.5733C39.659 47.0716 39.7916 46.5211 40.0356 45.9236C40.2791 45.3261 40.5662 44.8514 40.8976 44.5046C42.4572 45.314 43.8123 45.7193 44.9624 45.7193C45.5068 45.7193 45.9276 45.6281 46.2194 45.4444C46.5117 45.2613 46.6587 45.0155 46.6587 44.7068C46.6587 44.1264 46.2091 43.6924 45.3127 43.4032L43.7037 42.7952C41.2674 41.9078 40.0489 40.4618 40.0489 38.4533C40.0489 36.9866 40.5606 35.8242 41.5849 34.9643C42.6076 34.1056 43.9862 33.3662 45.7204 33.3662C46.5777 33.3662 47.5246 33.4868 48.5559 33.7279C49.5895 33.9696 50.4365 34.5649 51.0996 34.892C51.1387 35.4327 51.0301 36.0262 50.7781 36.6725C50.5249 37.3194 50.2131 37.7775 49.8422 38.0479C48.2033 37.3143 46.8401 36.9475 45.7475 36.9475C45.357 36.9475 45.0613 37.0342 44.8557 37.2087C44.6518 37.3827 44.5502 37.6042 44.5502 37.8746C44.5502 38.3378 44.9206 38.7041 45.6619 38.9744L47.4763 39.6133V39.6133Z" fill="#F6F6F6"/>
<path d="M38.0311 39.8177C38.0311 38.9302 37.8898 38.1099 37.6073 37.3568C37.3254 36.6037 36.9206 35.9579 36.3946 35.4172C35.868 34.8764 35.2301 34.4522 34.4801 34.1434C33.729 33.8351 32.8861 33.3701 31.9507 33.3701C30.8395 33.3701 29.8698 33.873 29.0418 34.2593C28.2137 34.6451 27.5315 35.1755 26.9958 35.8511C26.4589 36.5272 26.0592 37.3229 25.7962 38.2396C25.5332 39.1563 25.4017 40.1551 25.4017 41.2354C25.4017 42.3537 25.5085 43.388 25.7233 44.3334C25.9375 45.2777 26.3032 46.0974 26.8195 46.7932C27.3363 47.4877 28.0087 48.0279 28.8372 48.4131C29.6658 48.7988 30.6942 49.095 31.9219 49.095C34.1826 49.095 36.0924 48.4406 37.652 47.3414C37.4975 46.2232 37.099 45.334 36.4588 44.6778C35.6623 44.9769 34.9577 45.191 34.3468 45.3225C33.7353 45.4523 33.1961 45.5177 32.7304 45.5177C31.7984 45.5177 31.1278 45.2806 30.7207 44.8019C30.3141 44.3249 30.091 43.7607 30.0515 42.9036H37.6531C37.9042 42.092 38.0311 40.995 38.0311 39.8177V39.8177ZM30.0226 40.0181C30.0805 39.033 30.2603 37.9791 30.5595 37.5452C30.8592 37.1107 31.318 36.8937 31.9375 36.8937C32.5755 36.8937 33.0544 37.1245 33.3731 37.5877C33.6924 38.051 33.8519 38.9843 33.8519 39.6983L33.8525 40.0181H30.0226V40.0181Z" fill="#F6F6F6"/>
<path d="M72.3375 41.9437C71.5112 42.6652 71.0317 43.7036 71.0317 45.0613V50.1173C71.0317 51.798 70.5149 53.0764 69.3475 53.9552C68.1813 54.8329 66.8216 55.2674 65.2695 55.3093L64.3496 55.3024V52.783C65.1604 52.5465 65.4934 52.2716 65.8161 51.9593C66.4007 51.4312 66.8486 50.5719 66.8486 49.3785V45.2966C66.8704 43.9092 66.9772 42.822 67.4825 42.0367C67.9896 41.2514 68.9766 40.5649 70.4437 39.9719C68.8233 39.2303 67.7351 38.2618 67.1804 37.0673C66.8543 36.3578 66.8479 35.4003 66.8479 34.196V30.4528C66.8479 29.2163 66.4431 28.3501 65.9453 27.8558C65.6215 27.5332 65.2447 27.2755 64.3484 27.0809V24.7159C65.4446 24.7274 65.9981 24.7148 66.6366 24.7159C67.6197 24.7079 68.4431 25.2452 69.1597 25.8048C69.9401 26.4185 70.4947 27.248 70.8198 28.2921C71.0046 28.8954 71.0311 29.4718 71.0311 30.0205V34.3498C71.0311 35.879 71.483 37.0156 72.2553 37.7578C72.6906 38.1883 73.305 38.5821 74.3598 38.9375V40.8932C73.4251 41.1516 72.8382 41.5017 72.3375 41.9437Z" fill="#F6F6F6"/>
<path d="M14.1908 24.7185V24.7219C13.8768 24.7201 13.5925 24.719 13.3651 24.7196C12.3815 24.711 11.5581 25.2483 10.8421 25.8085C10.0606 26.4221 9.39172 27.2229 9.18215 28.2957C9.06271 28.9249 9.08798 29.4748 9.08798 30.0241V34.3535C9.08798 35.8821 8.51894 37.0181 7.74719 37.7615C7.31246 38.192 6.38451 38.5851 5.3291 38.9405V40.8961C6.26449 41.1539 7.16493 41.5029 7.66443 41.9461C8.49128 42.6682 9.08726 43.7072 9.08726 45.0647V50.1207C9.08726 51.8004 9.48812 53.0799 10.6543 53.9575C11.8206 54.8346 13.1797 55.2709 14.7318 55.3133L15.7705 55.3064V52.7853C14.9603 52.5482 14.5102 52.2732 14.1857 51.9621C13.6017 51.4333 13.271 50.5746 13.271 49.3818V45.2994C13.2486 43.9109 13.0247 42.8248 12.5188 42.0389C12.0129 41.2548 11.0258 40.5671 9.55701 39.9747C11.1781 39.2325 12.2656 38.2646 12.8203 37.0707C13.1471 36.3606 13.2711 35.4031 13.2711 34.1988V30.4556C13.2711 29.2191 13.5581 28.353 14.0554 27.8582C14.3253 27.5896 14.8053 27.3685 15.4721 27.1895L16.5263 27.1969C16.5263 26.2897 16.5263 25.7219 16.5263 24.7183H14.191V24.7185H14.1908V24.7185Z" fill="#F6F6F6"/>
<path d="M23.9107 45.2296H23.1212C22.2628 45.2296 21.9395 44.7784 21.9395 43.872V27.2144C21.9395 26.2127 21.6501 25.5095 21.2796 25.1043C20.9093 24.7002 20.2662 24.7042 19.3503 24.7042H17.5673L17.3572 24.7002V24.7174L17.3555 27.1966V44.678C17.3555 46.0683 17.6679 47.0855 18.2236 47.733C18.78 48.3793 19.72 48.7019 21.0453 48.7019C21.9618 48.7019 23.0046 48.6055 24.1736 48.412C24.2322 48.2168 24.2615 47.799 24.2615 47.1578C24.2615 46.5148 24.1445 45.8736 23.9107 45.2296Z" fill="#F6F6F6"/>
</g>
<defs>
<clipPath id="clip0_418_625">
<rect width="80" height="80" fill="white"/>
</clipPath>
</defs>
</svg>
