<svg width="76" height="80" viewBox="0 0 76 80" fill="none" xmlns="http://www.w3.org/2000/svg">
<path d="M57.8472 0H17.7083C7.92829 0 0 8.39466 0 18.75V61.25C0 71.6053 7.92829 80 17.7083 80H57.8472C67.6273 80 75.5556 71.6053 75.5556 61.25V18.75C75.5556 8.39466 67.6273 0 57.8472 0Z" fill="#0F172A"/>
<path d="M40 17.7778C31.7037 17.7778 26.5185 22.2223 24.4445 31.1112C27.5556 26.6667 31.1852 25.0001 35.3334 26.1112C37.7001 26.7451 39.3917 28.5847 41.2642 30.6212C44.3144 33.9384 47.8448 37.7778 55.5556 37.7778C63.8519 37.7778 69.0371 33.3334 71.1111 24.4445C68 28.8889 64.3704 30.5556 60.2223 29.4445C57.8555 28.8105 56.1639 26.9709 54.2914 24.9345C51.2412 21.6172 47.7109 17.7778 40 17.7778ZM24.4445 37.7778C16.1482 37.7778 10.963 42.2223 8.88892 51.1112C12 46.6667 15.6297 45.0001 19.7778 46.1112C22.1446 46.7451 23.8362 48.5847 25.7086 50.6212C28.7589 53.9384 32.2892 57.7778 40 57.7778C48.2963 57.7778 53.4815 53.3334 55.5556 44.4445C52.4445 48.8889 48.8148 50.5556 44.6667 49.4445C42.2999 48.8105 40.6083 46.9709 38.7359 44.9345C35.6856 41.6172 32.1553 37.7778 24.4445 37.7778Z" fill="url(#paint0_linear_915_698)"/>
<defs>
<linearGradient id="paint0_linear_915_698" x1="7.16052" y1="30.5778" x2="62.6851" y2="60.4577" gradientUnits="userSpaceOnUse">
<stop stop-color="#2298BD"/>
<stop offset="1" stop-color="#0ED7B5"/>
</linearGradient>
</defs>
</svg>
