<svg width="80" height="80" viewBox="0 0 80 80" fill="none" xmlns="http://www.w3.org/2000/svg">
<path d="M61.25 0L18.75 0C8.39466 0 0 8.39466 0 18.75L0 61.25C0 71.6053 8.39466 80 18.75 80L61.25 80C71.6053 80 80 71.6053 80 61.25L80 18.75C80 8.39466 71.6053 0 61.25 0Z" fill="#353535"/>
<path d="M59.2697 13.3396C55.553 13.4677 52.3091 15.4911 49.8944 18.29C47.2206 21.3589 45.4418 24.9989 44.1602 28.7144C41.8677 26.8584 40.0989 24.4556 36.4209 23.4078C33.578 22.6015 30.5919 22.9345 27.8461 24.9554C26.5453 25.9152 25.6491 27.3661 25.223 28.73C24.1196 32.2744 26.383 35.4287 27.411 36.5613L29.6586 38.9407C30.122 39.4072 31.2379 40.6243 30.6924 42.3692C30.1028 44.2662 27.7874 45.4947 25.4124 44.7709C24.3518 44.4514 22.828 43.6708 23.1691 42.5716C23.3102 42.1221 23.6359 41.7857 23.8105 41.3969C23.9708 41.063 24.0472 40.8126 24.0959 40.6655C24.5298 39.2661 23.937 37.4454 22.4196 36.9831C21.004 36.5545 19.5555 36.8941 18.9939 38.6947C18.3571 40.7402 19.348 44.4526 24.656 46.0691C30.875 47.9566 36.1358 44.6117 36.8819 40.2491C37.3519 37.5166 36.1029 35.4867 33.8146 32.8758L31.9503 30.8391C30.8209 29.7246 30.4331 27.825 31.602 26.365C32.5882 25.1335 33.993 24.6079 36.2935 25.226C39.6516 26.1267 41.1484 28.4283 43.6462 30.2847C42.615 33.6261 41.941 36.98 41.3308 39.9876L40.959 42.2298C39.1736 51.4807 37.8107 56.5603 34.2689 59.4765C33.5553 59.9778 32.5353 60.7281 30.9978 60.7804C30.1918 60.805 29.9314 60.2574 29.9202 60.0188C29.901 59.4599 30.3779 59.2037 30.6947 58.9521C31.1681 58.6971 31.8839 58.2741 31.8352 56.9191C31.7837 55.3177 30.4408 53.9293 28.4998 53.9929C27.0458 54.0418 24.8297 55.3935 24.913 57.8676C24.9997 60.4231 27.411 62.3382 31.0464 62.2169C32.9898 62.1511 37.3293 61.3696 41.6061 56.3477C46.5838 50.591 47.9759 43.9914 49.0232 39.1612L50.192 32.7842C50.8414 32.8611 51.5358 32.9122 52.2911 32.9301C58.4906 33.0593 61.5917 29.8872 61.6378 27.5799C61.6684 26.1835 60.7102 24.8095 59.3687 24.8406C58.4085 24.8675 57.2021 25.4988 56.9125 26.8106C56.6297 28.0975 58.8853 29.259 57.1223 30.387C55.8698 31.1877 53.6245 31.752 50.4625 31.2934L51.0375 28.1544C52.211 22.2017 53.6583 14.8796 59.1489 14.7015C59.549 14.6814 61.0133 14.7193 61.0473 15.6757C61.0574 15.9952 60.9772 16.0766 60.5986 16.808C60.213 17.3782 60.0677 17.8637 60.0857 18.4215C60.1386 19.9414 61.3086 20.9402 63.0007 20.88C65.2663 20.8076 65.918 18.6287 65.8808 17.5097C65.7892 14.8804 62.9841 13.2195 59.2697 13.3396Z" fill="white"/>
</svg>
