<svg width="80" height="80" viewBox="0 0 80 80" fill="none" xmlns="http://www.w3.org/2000/svg">
<g clip-path="url(#clip0_419_1054)">
<rect x="3.05176e-05" width="80" height="80" rx="15" fill="#E5E5E5"/>
<path d="M33.8405 42.6421L29.6648 28.4429V28.4432H26.6401L28.0225 33.0811L25.1996 42.6421L21.0243 28.4429H18L24.9116 51.771H25.1996L29.5197 37.3146L33.8401 51.771H34.1278L40.0479 31.7925L40.3235 31.3235H45.1916L41.1599 38.2933V39.6749H42.3117C43.7892 39.6749 44.8741 40.1277 45.5648 41.0292C46.1606 41.7977 46.4586 42.8813 46.4586 44.283C46.4586 45.5511 46.181 46.6353 45.624 47.5375C45.067 48.4393 44.3846 48.8914 43.5784 48.8914C42.8095 48.8914 42.1434 48.636 41.577 48.1274C41.0107 47.6199 40.5551 46.9241 40.2086 46.0406L37.8476 47.0199C38.3274 48.4774 39.0665 49.6344 40.0653 50.4894C41.064 51.3424 42.2345 51.771 43.5784 51.771C45.3636 51.771 46.8183 51.0513 47.9427 49.6119C49.0637 48.1717 49.6259 46.3958 49.6259 44.2826C49.6259 42.5728 49.242 41.0863 48.4734 39.8196C47.7052 38.5526 46.5725 37.6781 45.0756 37.1986L49.3372 29.8536V28.4429H38.0179L33.8405 42.6421Z" fill="#005A9C"/>
<path d="M61.8359 31.2897L61.3464 28.3125L59.638 31.7179C59.638 31.7179 58.9027 30.3643 58.1795 29.7454C57.4895 29.1537 56.595 28.6095 55.465 28.7283C54.3714 28.8404 53.1411 29.8018 52.3116 31.4036C51.3703 33.2249 51.0487 35.0721 51.0425 37.1084C51.0325 39.961 52.0849 41.9086 52.0849 41.9086C52.0849 41.9086 51.8443 41.0034 51.8841 39.4704C51.8848 39.4421 51.8856 39.4137 51.8863 39.3852C51.9107 38.4523 51.938 37.4099 52.6381 35.3238C53.2411 33.5264 54.6221 32.0697 55.8431 31.8169C56.7913 31.622 57.3985 31.764 58.3308 32.4214C59.4362 33.2003 60.1022 34.6072 60.1022 34.6072L61.8359 31.2897Z" fill="#221B0A"/>
<path d="M60.3158 47.0599C60.7939 46.5327 61.5583 45.1628 61.5583 45.1628L62 47.4629C62 47.4629 61.7269 47.9918 61.5583 48.2542C61.3308 48.6105 60.9171 49.2087 60.4795 49.6764C60.0596 50.1254 59.3977 50.6793 59.0837 50.8794L59.076 50.8843C58.7501 51.094 57.4865 51.907 55.6541 51.5825C53.8065 51.2567 52.5913 49.81 51.9665 48.9705C51.2952 48.068 50.8216 47.0336 50.6686 46.6954C50.4007 46.1075 49.9738 44.7225 49.9738 44.7225C49.9738 44.7225 50.7403 46.1055 51.2319 46.7978C51.7203 47.4868 52.5882 48.2283 52.9271 48.4782C53.2661 48.7316 54.2343 49.3347 55.2764 49.4351C56.3201 49.5362 56.873 49.4479 57.9285 48.983C58.9833 48.517 59.8384 47.5875 60.3158 47.0599Z" fill="#221B0A"/>
</g>
<defs>
<clipPath id="clip0_419_1054">
<rect width="80" height="80" fill="white"/>
</clipPath>
</defs>
</svg>
