<svg width="80" height="80" viewBox="0 0 80 80" fill="none" xmlns="http://www.w3.org/2000/svg">
<g clip-path="url(#clip0_418_926)">
<path d="M61.25 0H18.75C8.39466 0 0 8.39466 0 18.75V61.25C0 71.6053 8.39466 80 18.75 80H61.25C71.6053 80 80 71.6053 80 61.25V18.75C80 8.39466 71.6053 0 61.25 0Z" fill="#E7FCFF"/>
<path d="M61.1043 38.43L42.4879 19.4963L40.684 17.6616L26.67 31.9145L20.2617 38.43C19.9416 38.7572 19.762 39.2 19.762 39.6616C19.762 40.1232 19.9416 40.566 20.2617 40.8932L33.0647 53.9145L40.684 61.6616L54.696 47.4088L54.9143 47.1888L61.1043 40.903C61.2647 40.7411 61.392 40.5485 61.4789 40.3362C61.5658 40.124 61.6105 39.8964 61.6105 39.6665C61.6105 39.4367 61.5658 39.209 61.4789 38.9968C61.392 38.7846 61.2647 38.592 61.1043 38.43V38.43ZM40.684 46.1673L34.2873 39.6616L40.684 33.1559L47.0787 39.6616L40.684 46.1673Z" fill="#2684FF"/>
<path d="M40.6841 33.1561C38.6723 31.1105 37.5382 28.3384 37.5296 25.4452C37.5209 22.552 38.6383 19.7729 40.6377 17.7148L26.6411 31.9441L34.2584 39.6913L40.6841 33.1561Z" fill="url(#paint0_linear_418_926)"/>
<path d="M47.0962 39.644L40.6841 46.1674C42.7034 48.2218 43.8379 51.0077 43.8379 53.9126C43.8379 56.8175 42.7034 59.6035 40.6841 61.6578L54.7193 47.3912L47.0962 39.644Z" fill="url(#paint1_linear_418_926)"/>
</g>
<defs>
<linearGradient id="paint0_linear_418_926" x1="39.5388" y1="26.5738" x2="30.4553" y2="35.5031" gradientUnits="userSpaceOnUse">
<stop offset="0.18" stop-color="#0052CC"/>
<stop offset="1" stop-color="#2684FF"/>
</linearGradient>
<linearGradient id="paint1_linear_418_926" x1="41.9047" y1="52.6712" x2="50.9705" y2="43.7592" gradientUnits="userSpaceOnUse">
<stop offset="0.18" stop-color="#0052CC"/>
<stop offset="1" stop-color="#2684FF"/>
</linearGradient>
<clipPath id="clip0_418_926">
<rect width="80" height="80" fill="white"/>
</clipPath>
</defs>
</svg>
