<svg width="80" height="80" viewBox="0 0 80 80" fill="none" xmlns="http://www.w3.org/2000/svg">
<g clip-path="url(#clip0_418_863)">
<path d="M61.25 0H18.75C8.39466 0 0 8.39466 0 18.75V61.25C0 71.6053 8.39466 80 18.75 80H61.25C71.6053 80 80 71.6053 80 61.25V18.75C80 8.39466 71.6053 0 61.25 0Z" fill="#001E36"/>
<path d="M18 55.6377V21.3377C18 21.1043 18.1 20.971 18.3333 20.971C18.9 20.971 19.4333 20.971 20.2 20.9377C21 20.9043 21.8333 20.9043 22.7333 20.871C23.6333 20.8377 24.6 20.8377 25.6333 20.8043C26.6667 20.771 27.6667 20.771 28.6667 20.771C31.4 20.771 33.6665 21.1043 35.5334 21.8043C37.2 22.371 38.7334 23.3043 40 24.5377C41.0665 25.6043 41.9 26.9043 42.4334 28.3377C42.9334 29.7377 43.2 31.171 43.2 32.6711C43.2 35.5377 42.5334 37.9042 41.2 39.7711C39.8665 41.6377 38 43.0377 35.8334 43.8377C33.5665 44.6711 31.0667 44.9711 28.3333 44.9711C27.5333 44.9711 27 44.9711 26.6667 44.9377C26.3333 44.9042 25.8667 44.9042 25.2333 44.9042V55.6042C25.2667 55.8377 25.1 56.0377 24.8667 56.0711C24.8333 56.0711 24.8 56.0711 24.7333 56.0711H18.4C18.1333 56.0711 18 55.9377 18 55.6377ZM25.2667 27.4043V38.6042C25.7333 38.6377 26.1667 38.6711 26.5667 38.6711H28.3333C29.6333 38.6711 30.9333 38.4711 32.1665 38.0711C33.2334 37.7711 34.1665 37.1377 34.9 36.3042C35.6 35.4711 35.9334 34.3377 35.9334 32.8711C35.9665 31.8377 35.7 30.8043 35.1665 29.9043C34.6 29.0377 33.8 28.371 32.8334 28.0043C31.6 27.5043 30.2667 27.3043 28.9 27.3377C28.0333 27.3377 27.2667 27.3377 26.6333 27.371C25.9667 27.3377 25.5 27.371 25.2667 27.4043Z" fill="#31A8FF"/>
<path d="M64.0001 36.5711C63.0001 36.0376 61.9335 35.6711 60.8001 35.4376C59.5667 35.1711 58.3335 35.0042 57.0667 35.0042C56.4001 34.9711 55.7001 35.0711 55.0667 35.2376C54.6335 35.3376 54.2667 35.5711 54.0335 35.9042C53.8667 36.1711 53.7666 36.5042 53.7666 36.8042C53.7666 37.1042 53.9001 37.4042 54.1001 37.6711C54.4001 38.0376 54.8001 38.3376 55.2335 38.5711C56.0001 38.9711 56.8001 39.3376 57.6001 39.6711C59.4001 40.2711 61.1335 41.1042 62.7335 42.1042C63.8335 42.8042 64.7335 43.7376 65.3667 44.8711C65.9001 45.9376 66.1667 47.1042 66.1335 48.3042C66.1667 49.8711 65.7001 51.4376 64.8335 52.7376C63.9001 54.0711 62.6001 55.1042 61.1001 55.7042C59.4667 56.4042 57.4667 56.7711 55.0667 56.7711C53.5335 56.7711 52.0335 56.6376 50.5335 56.3376C49.3667 56.1376 48.2001 55.7711 47.1335 55.2711C46.9001 55.1376 46.7335 54.9042 46.7667 54.6376V48.8376C46.7667 48.7376 46.8001 48.6042 46.9001 48.5376C47.0001 48.4711 47.1001 48.5042 47.2001 48.5711C48.5001 49.3376 49.8667 49.8711 51.3335 50.2042C52.6001 50.5376 53.9335 50.7042 55.2667 50.7042C56.5335 50.7042 57.4335 50.5376 58.0335 50.2376C58.5667 50.0042 58.9335 49.4376 58.9335 48.8376C58.9335 48.3711 58.6666 47.9376 58.1335 47.5042C57.6001 47.0711 56.5001 46.5711 54.8667 45.9376C53.1667 45.3376 51.6001 44.5376 50.1335 43.5376C49.1001 42.8042 48.2335 41.8376 47.6001 40.7042C47.0667 39.6376 46.8001 38.4711 46.8335 37.3042C46.8335 35.8711 47.2335 34.5042 47.9667 33.2711C48.8001 31.9376 50.0335 30.8709 51.4666 30.2043C53.0335 29.4043 55.0001 29.0376 57.3667 29.0376C58.7335 29.0376 60.1335 29.1376 61.5001 29.3376C62.5001 29.4709 63.4667 29.7376 64.3667 30.1043C64.5001 30.1376 64.6335 30.2709 64.7001 30.4043C64.7335 30.5376 64.7667 30.6709 64.7667 30.8043V36.2376C64.7667 36.3711 64.7001 36.5042 64.6001 36.5711C64.3001 36.6376 64.1335 36.6376 64.0001 36.5711Z" fill="#31A8FF"/>
</g>
<defs>
<clipPath id="clip0_418_863">
<rect width="80" height="80" fill="white"/>
</clipPath>
</defs>
</svg>
