<svg width="80" height="80" viewBox="0 0 80 80" fill="none" xmlns="http://www.w3.org/2000/svg">
<g clip-path="url(#clip0_418_878)">
<rect width="80" height="80" rx="15" fill="#F03C2E"/>
<path d="M70.0703 37.2168L42.7831 9.92964C42.4097 9.5558 41.9659 9.25927 41.4778 9.05696C40.9894 8.85461 40.4659 8.75049 39.9375 8.75049C39.4091 8.75049 38.8856 8.85461 38.3972 9.05696C37.9091 9.25927 37.4653 9.5558 37.0919 9.92964L31.4278 15.5937L38.6153 22.7812C40.2872 22.1953 42.2012 22.5956 43.5331 23.9277C44.1672 24.5629 44.61 25.3636 44.8106 26.2385C45.0112 27.1133 44.9619 28.0269 44.6678 28.875L51.5956 35.8028C53.2716 35.2246 55.205 35.5975 56.5428 36.9393C56.9878 37.3843 57.3406 37.9125 57.5812 38.4937C57.8219 39.075 57.9456 39.6978 57.9456 40.3268C57.9453 40.9559 57.8216 41.5787 57.5806 42.16C57.3397 42.7409 56.9869 43.269 56.5419 43.7137C56.0972 44.1587 55.5691 44.5112 54.9878 44.7518C54.4066 44.9928 53.7837 45.1165 53.1547 45.1162C52.5256 45.1162 51.9025 44.9921 51.3216 44.7515C50.7403 44.5106 50.2122 44.1578 49.7675 43.7128C48.3612 42.3065 48.0137 40.2362 48.7247 38.5037L42.2637 32.0428V49.045C42.7328 49.2768 43.1612 49.5831 43.5331 49.9512C43.9778 50.3959 44.3306 50.9237 44.5716 51.505C44.8122 52.0859 44.9359 52.7087 44.9359 53.3378C44.9359 53.9668 44.8122 54.5897 44.5716 55.1706C44.3306 55.7518 43.9778 56.28 43.5331 56.7246C43.0884 57.1693 42.5603 57.5221 41.9794 57.7628C41.3981 58.0034 40.7753 58.1275 40.1466 58.1275C39.5175 58.1275 38.8947 58.0034 38.3137 57.7628C37.7325 57.5221 37.2044 57.1693 36.7597 56.7246C36.3144 56.28 35.9612 55.7521 35.7203 55.1712C35.4791 54.59 35.355 53.9668 35.355 53.3378C35.355 52.7087 35.4791 52.0859 35.7203 51.5046C35.9612 50.9234 36.3144 50.3956 36.7597 49.9512C37.2225 49.4903 37.7362 49.1406 38.3281 48.9062V31.7459C37.7578 31.5115 37.2225 31.166 36.7597 30.7011C36.0872 30.0294 35.63 29.1726 35.4462 28.2401C35.2628 27.3075 35.3609 26.3413 35.7284 25.4648L28.6387 18.3789L9.92771 37.0703C9.55362 37.444 9.25684 37.8878 9.05434 38.3762C8.85184 38.8646 8.74762 39.3881 8.74762 39.9168C8.74762 40.4456 8.85184 40.9693 9.05434 41.4578C9.25684 41.9462 9.55362 42.39 9.92771 42.7637L37.2169 70.0487C37.5903 70.4225 38.0341 70.719 38.5222 70.9215C39.0106 71.1237 39.5341 71.2278 40.0625 71.2278C40.5909 71.2278 41.1144 71.1237 41.6028 70.9215C42.0909 70.719 42.5347 70.4225 42.9081 70.0487L70.0703 42.9296C70.4444 42.5559 70.7412 42.1121 70.9437 41.6237C71.1462 41.1353 71.2503 40.6118 71.2503 40.0831C71.2503 39.5543 71.1462 39.0306 70.9437 38.5421C70.7412 38.0537 70.4444 37.61 70.0703 37.2362" fill="white"/>
</g>
<defs>
<clipPath id="clip0_418_878">
<rect width="80" height="80" fill="white"/>
</clipPath>
</defs>
</svg>
