<svg width="80" height="80" viewBox="0 0 80 80" fill="none" xmlns="http://www.w3.org/2000/svg">
<g clip-path="url(#clip0_418_815)">
<rect width="80" height="80" rx="15" fill="#2B4C6A"/>
<g filter="url(#filter0_d_418_815)">
<path d="M39.7872 9.0625C24.8023 9.0625 25.738 15.9431 25.738 15.9431L25.7547 23.0714H40.0546V25.2116H20.0749C20.0749 25.2116 10.4861 24.0602 10.4861 40.0694C10.4861 56.0787 18.8554 55.5112 18.8554 55.5112H23.8503V48.0822C23.8503 48.0822 23.5811 39.2206 32.0861 39.2206H46.2687C46.2687 39.2206 54.2372 39.3569 54.2372 31.0663V17.3582C54.2372 17.3582 55.447 9.0625 39.7872 9.0625ZM31.9022 13.8559C33.3251 13.8559 34.475 15.0735 34.475 16.5799C34.475 18.0863 33.3251 19.3038 31.9022 19.3038C30.4796 19.3038 29.3297 18.0863 29.3297 16.5799C29.3297 15.0735 30.4796 13.8559 31.9022 13.8559Z" fill="url(#paint0_linear_418_815)"/>
</g>
<g filter="url(#filter1_d_418_815)">
<path d="M40.2128 71.2371C55.1976 71.2371 54.262 64.3567 54.262 64.3567L54.2452 57.2283H39.9455V55.088H59.9252C59.9252 55.088 69.5139 56.2396 69.5139 40.2302C69.5139 24.2209 61.1447 24.7886 61.1447 24.7886H56.1498V32.2177C56.1498 32.2177 56.4189 41.0792 47.9139 41.0792H33.7313C33.7313 41.0792 25.7628 40.9427 25.7628 49.2333V62.9414C25.7628 62.9414 24.5529 71.2371 40.2128 71.2371ZM48.0978 66.4436C46.6749 66.4436 45.5251 65.2261 45.5251 63.7199C45.5251 62.2133 46.6749 60.9958 48.0978 60.9958C49.5203 60.9958 50.6705 62.2133 50.6705 63.7199C50.6705 65.2261 49.5203 66.4436 48.0978 66.4436Z" fill="url(#paint1_linear_418_815)"/>
</g>
</g>
<defs>
<filter id="filter0_d_418_815" x="6.48608" y="9.0625" width="51.7727" height="54.4512" filterUnits="userSpaceOnUse" color-interpolation-filters="sRGB">
<feFlood flood-opacity="0" result="BackgroundImageFix"/>
<feColorMatrix in="SourceAlpha" type="matrix" values="0 0 0 0 0 0 0 0 0 0 0 0 0 0 0 0 0 0 127 0" result="hardAlpha"/>
<feOffset dy="4"/>
<feGaussianBlur stdDeviation="2"/>
<feComposite in2="hardAlpha" operator="out"/>
<feColorMatrix type="matrix" values="0 0 0 0 0 0 0 0 0 0 0 0 0 0 0 0 0 0 0.25 0"/>
<feBlend mode="normal" in2="BackgroundImageFix" result="effect1_dropShadow_418_815"/>
<feBlend mode="normal" in="SourceGraphic" in2="effect1_dropShadow_418_815" result="shape"/>
</filter>
<filter id="filter1_d_418_815" x="21.7411" y="24.7861" width="51.7728" height="54.4507" filterUnits="userSpaceOnUse" color-interpolation-filters="sRGB">
<feFlood flood-opacity="0" result="BackgroundImageFix"/>
<feColorMatrix in="SourceAlpha" type="matrix" values="0 0 0 0 0 0 0 0 0 0 0 0 0 0 0 0 0 0 127 0" result="hardAlpha"/>
<feOffset dy="4"/>
<feGaussianBlur stdDeviation="2"/>
<feComposite in2="hardAlpha" operator="out"/>
<feColorMatrix type="matrix" values="0 0 0 0 0 0 0 0 0 0 0 0 0 0 0 0 0 0 0.25 0"/>
<feBlend mode="normal" in2="BackgroundImageFix" result="effect1_dropShadow_418_815"/>
<feBlend mode="normal" in="SourceGraphic" in2="effect1_dropShadow_418_815" result="shape"/>
</filter>
<linearGradient id="paint0_linear_418_815" x1="16.1587" y1="14.655" x2="47.0632" y2="43.5514" gradientUnits="userSpaceOnUse">
<stop stop-color="#387EB8"/>
<stop offset="1" stop-color="#366994"/>
</linearGradient>
<linearGradient id="paint1_linear_418_815" x1="34.1138" y1="34.3455" x2="67.2146" y2="63.8983" gradientUnits="userSpaceOnUse">
<stop stop-color="#FFE052"/>
<stop offset="1" stop-color="#FFC331"/>
</linearGradient>
<clipPath id="clip0_418_815">
<rect width="80" height="80" fill="white"/>
</clipPath>
</defs>
</svg>
