<svg width="80" height="80" viewBox="0 0 80 80" fill="none" xmlns="http://www.w3.org/2000/svg">
<rect x="6.10352e-05" width="80" height="80" rx="15" fill="#1B1B1F"/>
<path d="M65.8267 21.4462L41.227 66.1971C40.7191 67.1211 39.4142 67.1265 38.8987 66.2071L13.8113 21.4504C13.2496 20.4486 14.0917 19.2349 15.2078 19.438L39.8339 23.9158C39.9911 23.9444 40.1519 23.9441 40.3089 23.915L64.42 19.4442C65.5324 19.238 66.3784 20.4423 65.8267 21.4462V21.4462Z" fill="url(#paint0_linear_917_685)"/>
<path d="M51.5646 13.5644L33.3602 17.1934C33.2147 17.2224 33.0829 17.2997 32.9854 17.4133C32.8878 17.5268 32.8301 17.6701 32.8214 17.8206L31.7016 37.0614C31.6955 37.1669 31.7136 37.2724 31.7545 37.3696C31.7954 37.4668 31.8581 37.5529 31.9374 37.6211C32.0168 37.6893 32.1107 37.7378 32.2117 37.7627C32.3127 37.7876 32.418 37.7881 32.5192 37.7644L37.5877 36.5744C38.0618 36.4631 38.4904 36.888 38.3928 37.3731L36.887 44.8748C36.7858 45.3796 37.2516 45.8112 37.7362 45.6614L40.8668 44.6939C41.352 44.5441 41.8184 44.9769 41.7157 45.4822L39.3228 57.2655C39.173 58.0026 40.1367 58.4044 40.5385 57.7726L40.8071 57.3506L55.6411 27.2333C55.8896 26.7291 55.461 26.1541 54.9169 26.261L49.6996 27.2853C49.2094 27.3815 48.7923 26.917 48.9306 26.4292L52.3357 14.4203C52.4742 13.9313 52.0555 13.4666 51.5648 13.5644H51.5646Z" fill="url(#paint1_linear_917_685)"/>
<defs>
<linearGradient id="paint0_linear_917_685" x1="13.1988" y1="23.0485" x2="40.3235" y2="59.2588" gradientUnits="userSpaceOnUse">
<stop stop-color="#41D1FF"/>
<stop offset="1" stop-color="#BD34FE"/>
</linearGradient>
<linearGradient id="paint1_linear_917_685" x1="42.1163" y1="14.5497" x2="47.7609" y2="52.6107" gradientUnits="userSpaceOnUse">
<stop stop-color="#FFEA83"/>
<stop offset="0.083" stop-color="#FFDD35"/>
<stop offset="1" stop-color="#FFA800"/>
</linearGradient>
</defs>
</svg>
