<svg width="80" height="80" viewBox="0 0 80 80" fill="none" xmlns="http://www.w3.org/2000/svg">
<g clip-path="url(#clip0_418_978)">
<rect width="80" height="80" rx="15" fill="#242938"/>
<path fill-rule="evenodd" clip-rule="evenodd" d="M15.2425 36.2204C14.0072 37.4021 13.4963 38.534 13.4963 39.5634C13.4963 40.5928 14.0072 41.7248 15.2425 42.9064C16.4776 44.088 18.3349 45.2126 20.7361 46.1843C25.5301 48.124 32.2373 49.3515 39.7078 49.3515C47.1784 49.3515 53.8855 48.124 58.6795 46.1843C61.0808 45.2126 62.9381 44.088 64.1732 42.9064C65.4085 41.7248 65.9194 40.5928 65.9194 39.5634C65.9194 38.534 65.4085 37.4021 64.1732 36.2204C62.9381 35.0389 61.0808 33.9142 58.6795 32.9426C53.8855 31.0028 47.1784 29.7753 39.7078 29.7753C32.2373 29.7753 25.5301 31.0028 20.7361 32.9426C18.3349 33.9142 16.4776 35.0389 15.2425 36.2204ZM19.8457 30.4712C24.9901 28.3896 32.0128 27.1299 39.7078 27.1299C47.4029 27.1299 54.4256 28.3896 59.57 30.4712C62.1379 31.5102 64.302 32.7797 65.846 34.2567C67.3898 35.7336 68.4157 37.5247 68.4157 39.5634C68.4157 41.6022 67.3898 43.3932 65.846 44.8701C64.302 46.3471 62.1379 47.6166 59.57 48.6557C54.4256 50.7372 47.4029 51.997 39.7078 51.997C32.0128 51.997 24.9901 50.7372 19.8457 48.6557C17.2778 47.6166 15.1137 46.3471 13.5697 44.8701C12.0259 43.3932 11 41.6022 11 39.5634C11 37.5247 12.0259 35.7336 13.5697 34.2567C15.1137 32.7797 17.2778 31.5102 19.8457 30.4712Z" fill="#61DAFB"/>
<path d="M39.7078 44.9864C42.5341 44.9864 44.8253 42.5584 44.8253 39.5633C44.8253 36.5682 42.5341 34.1401 39.7078 34.1401C36.8815 34.1401 34.5903 36.5682 34.5903 39.5633C34.5903 42.5584 36.8815 44.9864 39.7078 44.9864Z" fill="#61DAFB"/>
<path fill-rule="evenodd" clip-rule="evenodd" d="M30.2071 15.4388C28.6238 14.896 27.4433 14.9931 26.6021 15.5078C25.7608 16.0225 25.0912 17.0573 24.7432 18.7818C24.3952 20.5061 24.4047 22.7729 24.8113 25.4625C25.6231 30.8321 27.9736 37.6014 31.7088 44.4575C35.4441 51.3136 39.8008 56.8553 43.783 60.2851C45.7777 62.0031 47.6254 63.1453 49.2086 63.688C50.7919 64.2308 51.9723 64.1338 52.8136 63.6191C53.6548 63.1043 54.3244 62.0695 54.6725 60.3451C55.0205 58.6208 55.0109 56.3539 54.6043 53.6643C53.7925 48.2947 51.4421 41.5255 47.7068 34.6694C43.9715 27.8133 39.6148 22.2715 35.6326 18.8417C33.6379 17.1237 31.7902 15.9815 30.2071 15.4388ZM37.2071 16.7888C41.4804 20.4693 46.0212 26.2845 49.8687 33.3466C53.7162 40.4088 56.1981 47.4837 57.0692 53.2458C57.5041 56.122 57.5486 58.7429 57.1136 60.8984C56.6786 63.0537 55.7278 64.8907 54.0617 65.9101C52.3956 66.9294 50.419 66.8835 48.4402 66.205C46.4612 65.5266 44.3417 64.1752 42.2086 62.338C37.9353 58.6575 33.3944 52.8423 29.5469 45.7802C25.6994 38.7181 23.2176 31.6431 22.3464 25.881C21.9116 23.0048 21.867 20.384 22.3021 18.2285C22.7371 16.0732 23.6878 14.2361 25.3539 13.2168C27.02 12.1974 28.9966 12.2434 30.9754 12.9218C32.9545 13.6003 35.074 14.9516 37.2071 16.7888Z" fill="#61DAFB"/>
<path fill-rule="evenodd" clip-rule="evenodd" d="M54.6725 18.7818C54.3244 17.0574 53.6549 16.0225 52.8136 15.5078C51.9724 14.9931 50.7919 14.896 49.2086 15.4388C47.6255 15.9816 45.7777 17.1238 43.7831 18.8418C39.8009 22.2716 35.4441 27.8133 31.7089 34.6694C27.9736 41.5255 25.6232 48.2948 24.8114 53.6643C24.4047 56.354 24.3952 58.6208 24.7432 60.3451C25.0913 62.0696 25.7608 63.1044 26.6021 63.6191C27.4434 64.1338 28.6238 64.2309 30.2071 63.6881C31.7902 63.1454 33.638 62.0032 35.6327 60.2852C39.6149 56.8554 43.9716 51.3136 47.7068 44.4575C51.4421 37.6014 53.7926 30.8322 54.6044 25.4626C55.011 22.773 55.0205 20.5061 54.6725 18.7818ZM57.0693 25.8811C56.1981 31.6432 53.7162 38.7181 49.8687 45.7802C46.0212 52.8424 41.4804 58.6576 37.2071 62.3381C35.074 64.1753 32.9545 65.5266 30.9755 66.2051C28.9966 66.8835 27.02 66.9295 25.3539 65.9101C23.6878 64.8907 22.7371 63.0537 22.3021 60.8984C21.867 58.7429 21.9116 56.1221 22.3465 53.2459C23.2176 47.4838 25.6995 40.4088 29.547 33.3467C33.3945 26.2846 37.9353 20.4694 42.2086 16.7888C44.3417 14.9516 46.4612 13.6003 48.4402 12.9218C50.4191 12.2434 52.3957 12.1974 54.0618 13.2168C55.7279 14.2362 56.6786 16.0732 57.1136 18.2285C57.5487 20.384 57.5041 23.0048 57.0693 25.8811Z" fill="#61DAFB"/>
</g>
<defs>
<clipPath id="clip0_418_978">
<rect width="80" height="80" fill="white"/>
</clipPath>
</defs>
</svg>
