<svg width="80" height="80" viewBox="0 0 80 80" fill="none" xmlns="http://www.w3.org/2000/svg">
<g clip-path="url(#clip0_418_883)">
<rect width="80" height="80" rx="15" fill="#001E36"/>
<path d="M25.7895 71.0441C28.5268 71.0441 30.7459 70.585 30.7459 70.0186C30.7459 69.4523 28.5268 68.9932 25.7895 68.9932C23.0521 68.9932 20.833 69.4523 20.833 70.0186C20.833 70.585 23.0521 71.0441 25.7895 71.0441Z" fill="url(#paint0_radial_418_883)"/>
<path d="M24.0433 67.7225H27.3501C27.1494 63.4274 25.8639 49.7098 23.7832 41.1865C24.1696 47.0347 24.5857 66.489 24.0433 67.7225Z" fill="url(#paint1_linear_418_883)"/>
<path opacity="0.28" d="M24.0433 67.7596H25.3883C25.5592 58.0548 23.7832 41.2236 23.7832 41.2236C24.1696 47.0718 24.5857 66.5261 24.0433 67.7596Z" fill="url(#paint2_linear_418_883)"/>
<path opacity="0.33" d="M24.1622 66.9943L25.5666 67.403C25.5666 67.403 25.4775 63.9476 26.4138 62.3871C26.6887 60.5962 24.452 44.2629 23.8575 41.4838C23.8575 41.3872 23.8129 41.2831 23.7832 41.1865C24.1325 46.522 24.5263 63.1673 24.1622 66.9943V66.9943Z" fill="url(#paint3_linear_418_883)"/>
<path d="M23.9466 70.234L26.0422 70.3232C26.0942 66.2659 24.6229 59.2511 20.625 56.5239C22.6611 59.0579 24.1324 62.1417 23.9466 70.234V70.234Z" fill="url(#paint4_linear_418_883)"/>
<path opacity="0.17" d="M20.9073 56.8955C22.8022 59.3626 24.1398 62.5282 23.9689 70.2712L25.3957 70.3307C25.4477 68.7702 25.4848 60.5441 20.9371 56.9029L20.9073 56.8955Z" fill="url(#paint5_linear_418_883)"/>
<path d="M27.9222 70.3681C27.9891 70.6653 25.8341 70.8734 25.7598 70.8065C25.6855 70.7396 24.1919 60.7896 31.2067 61.7927C27.4021 61.9562 27.1122 67.1653 27.9222 70.3681Z" fill="url(#paint6_linear_418_883)"/>
<path opacity="0.08" d="M25.7896 70.8065C26.2459 70.8178 26.702 70.7779 27.1494 70.6876C27.0603 69.8479 26.6367 65.263 27.6622 62.5581C24.831 64.7874 25.7301 70.7322 25.7896 70.8065Z" fill="url(#paint7_linear_418_883)"/>
<path opacity="0.47" d="M26.436 66.5337C26.9695 66.5337 27.402 66.1378 27.402 65.6494C27.402 65.161 26.9695 64.7651 26.436 64.7651C25.9025 64.7651 25.47 65.161 25.47 65.6494C25.47 66.1378 25.9025 66.5337 26.436 66.5337Z" fill="url(#paint8_radial_418_883)"/>
<path opacity="0.47" d="M25.0241 66.5337C25.5577 66.5337 25.9902 66.1378 25.9902 65.6494C25.9902 65.161 25.5577 64.7651 25.0241 64.7651C24.4906 64.7651 24.0581 65.161 24.0581 65.6494C24.0581 66.1378 24.4906 66.5337 25.0241 66.5337Z" fill="url(#paint9_radial_418_883)"/>
<path d="M25.0241 66.1989C25.3278 66.1989 25.574 65.9527 25.574 65.649C25.574 65.3453 25.3278 65.0991 25.0241 65.0991C24.7204 65.0991 24.4742 65.3453 24.4742 65.649C24.4742 65.9527 24.7204 66.1989 25.0241 66.1989Z" fill="white"/>
<path d="M26.4137 66.1989C26.7174 66.1989 26.9636 65.9527 26.9636 65.649C26.9636 65.3453 26.7174 65.0991 26.4137 65.0991C26.11 65.0991 25.8638 65.3453 25.8638 65.649C25.8638 65.9527 26.11 66.1989 26.4137 66.1989Z" fill="white"/>
<path d="M21.0931 68.9409L21.8808 70.2859H22.3118M23.2778 70.873H24.2216L22.8171 67.1055M28.7619 70.6352H29.3787L29.8394 67.7222M30.3447 69.8698H30.8723L31.1249 68.7997" fill="#A0CB29"/>
<path d="M40.7704 64.2226C40.5561 58.0286 40.6677 51.8275 41.1048 45.6452C41.417 40.8047 42.025 35.9879 42.9253 31.2217C43.0071 30.8279 43.0814 30.4786 43.0814 30.4786C43.5566 28.1476 44.1544 25.8433 44.8723 23.5752C45.3256 22.1559 45.5559 21.4426 45.9126 20.6029C46.6733 18.7826 47.6091 17.0405 48.7066 15.4012C49.4232 14.2584 50.2335 13.1772 51.1291 12.1687C52.7417 10.3927 54.0346 9.01055 56.0633 8.64643C56.9603 8.48826 57.882 8.54427 58.7533 8.80992C61.0272 9.51586 62.3053 11.4999 62.1567 11.6708C62.0081 11.8417 59.4667 8.69845 56.955 9.27063C55.5506 9.59017 54.592 10.9723 53.6631 12.3173C53.0111 13.3634 52.4374 14.4563 51.9465 15.587C51.2034 17.1772 50.7947 18.1729 50.6981 18.4256C50.4529 19.0572 50.282 19.57 49.955 20.536C49.6727 21.3682 49.4497 22.0222 49.2119 22.8173C48.5506 24.9128 48.2162 25.9531 48.0156 26.6888C47.8149 27.4245 47.5548 28.4128 47.1016 30.7758C46.4922 33.934 46.0315 36.8618 45.8606 38.2068C45.333 42.2121 44.8128 50.9732 45.4444 62.4838" fill="url(#paint10_linear_418_883)"/>
<path opacity="0.33" d="M40.5177 66.5261C40.2163 60.4042 40.3404 54.2688 40.8892 48.1642C41.2831 42.0291 42.055 35.9241 43.2002 29.884C43.2448 29.6462 43.3043 29.3118 43.3935 28.8957C43.9526 25.8566 44.8524 22.8903 46.076 20.0528C46.7124 18.604 47.4577 17.2055 48.3053 15.8692C49.1302 14.5837 50.007 13.4393 50.8913 12.2875C51.5675 11.4106 51.9019 10.9722 52.0728 10.8013C54.2427 8.572 57.594 8.26733 57.6758 8.50512C57.7575 8.74291 55.4465 9.08474 53.1726 11.1134C51.8043 12.3982 50.7317 13.9652 50.0293 15.7057C48.4191 19.3484 47.2491 23.1701 46.5442 27.09C45.4964 32.1133 44.9762 34.625 44.5527 37.8426C44.0102 41.9519 43.8765 44.8871 43.6238 54.1238C43.4826 59.2512 43.4603 62.0898 43.3489 67.8562" fill="url(#paint11_linear_418_883)"/>
<path opacity="0.28" d="M40.7704 64.2226C40.5561 58.0285 40.6677 51.8275 41.1048 45.6452C41.417 40.8047 42.025 35.9879 42.9253 31.2217C43.0071 30.8278 43.0814 30.4786 43.0814 30.4786C43.5566 28.1476 44.1544 25.8433 44.8723 23.5752C45.3256 22.1559 45.5559 21.4425 45.9126 20.6028C46.6733 18.7826 47.6091 17.0405 48.7066 15.4011C49.4232 14.2584 50.2334 13.1772 51.1291 12.1687C53.7077 9.33005 55.3722 8.80245 56.0633 8.6464C56.5785 8.49983 57.1214 8.47944 57.6461 8.58696C56.8986 8.71695 56.1665 8.92363 55.4614 9.20372C54.6763 9.59769 53.9865 10.1581 53.4402 10.846C51.9612 12.6054 50.664 14.51 49.5686 16.5307C48.6062 18.3503 47.8032 20.2498 47.1684 22.2079C46.9604 22.847 46.7003 23.6941 46.195 25.4627C45.9275 26.347 45.6451 27.2907 45.3404 28.4351C45.0357 29.5794 44.8871 29.7801 43.5718 36.3639C43.022 39.1654 42.3234 49.5984 42.747 63.8585" fill="url(#paint12_linear_418_883)"/>
<path d="M38.5485 67.7297L43.7502 67.9526C43.8765 57.8242 40.2056 40.302 30.2184 33.4878C35.3012 39.8041 38.9795 47.5249 38.5262 67.7297H38.5485Z" fill="url(#paint13_linear_418_883)"/>
<path opacity="0.17" d="M30.9467 34.4097C35.6802 40.5848 39.0241 48.4839 38.5931 67.797L42.16 67.953C42.2863 64.0592 42.3755 43.5052 30.9467 34.4097V34.4097Z" fill="url(#paint14_linear_418_883)"/>
<path d="M43.1482 69.7512C49.9855 69.7512 55.5282 68.6067 55.5282 67.1949C55.5282 65.7831 49.9855 64.6387 43.1482 64.6387C36.3109 64.6387 30.7682 65.7831 30.7682 67.1949C30.7682 68.6067 36.3109 69.7512 43.1482 69.7512Z" fill="url(#paint15_radial_418_883)"/>
<path d="M48.4688 68.0716C48.6323 68.8147 43.2671 69.32 43.0665 69.1565C42.8658 68.993 39.1652 44.1365 56.6651 46.6333C47.1758 47.042 46.4476 60.0536 48.4688 68.0716Z" fill="url(#paint16_linear_418_883)"/>
<path opacity="0.08" d="M43.0666 69.1567C44.2089 69.183 45.3505 69.0808 46.47 68.8521C46.2545 66.7565 45.1918 55.3129 47.7406 48.5581C40.6738 54.1536 42.9254 69.0378 43.0666 69.1567V69.1567Z" fill="url(#paint17_linear_418_883)"/>
<path d="M31.4221 64.5048L33.369 67.8636H34.4614M36.869 69.3498H39.2321L35.7321 59.9199M50.5346 68.7256H52.0802L53.2171 61.4581M54.4878 66.8159H55.8031L56.4422 64.1407" fill="#A0CB29"/>
<path opacity="0.47" d="M44.7682 58.486C46.0979 58.486 47.1759 57.4945 47.1759 56.2716C47.1759 55.0486 46.0979 54.0571 44.7682 54.0571C43.4385 54.0571 42.3606 55.0486 42.3606 56.2716C42.3606 57.4945 43.4385 58.486 44.7682 58.486Z" fill="url(#paint18_radial_418_883)"/>
<path opacity="0.47" d="M41.2384 58.486C42.5681 58.486 43.6461 57.4945 43.6461 56.2716C43.6461 55.0486 42.5681 54.0571 41.2384 54.0571C39.9087 54.0571 38.8308 55.0486 38.8308 56.2716C38.8308 57.4945 39.9087 58.486 41.2384 58.486Z" fill="url(#paint19_radial_418_883)"/>
<path d="M41.2385 57.6535C42.0018 57.6535 42.6206 57.0347 42.6206 56.2713C42.6206 55.508 42.0018 54.8892 41.2385 54.8892C40.4751 54.8892 39.8563 55.508 39.8563 56.2713C39.8563 57.0347 40.4751 57.6535 41.2385 57.6535Z" fill="white"/>
<path d="M44.7013 57.6535C45.4646 57.6535 46.0834 57.0347 46.0834 56.2713C46.0834 55.508 45.4646 54.8892 44.7013 54.8892C43.9379 54.8892 43.3191 55.508 43.3191 56.2713C43.3191 57.0347 43.9379 57.6535 44.7013 57.6535Z" fill="white"/>
</g>
<defs>
<radialGradient id="paint0_radial_418_883" cx="0" cy="0" r="1" gradientUnits="userSpaceOnUse" gradientTransform="translate(25.7895 81.7358) scale(4.74095 1.13783)">
<stop stop-color="#323232" stop-opacity="0.92"/>
<stop offset="0.24" stop-color="#272727" stop-opacity="0.64"/>
<stop offset="0.64" stop-color="#0B0B0B" stop-opacity="0.17"/>
<stop offset="0.79" stop-opacity="0"/>
</radialGradient>
<linearGradient id="paint1_linear_418_883" x1="25.5666" y1="62.6471" x2="25.5666" y2="40.1388" gradientUnits="userSpaceOnUse">
<stop stop-color="#3D6A06"/>
<stop offset="0.16" stop-color="#588710"/>
<stop offset="0.33" stop-color="#6D9D18"/>
<stop offset="0.51" stop-color="#7BAE1E"/>
<stop offset="0.72" stop-color="#84B721"/>
<stop offset="1" stop-color="#87BA22"/>
</linearGradient>
<linearGradient id="paint2_linear_418_883" x1="24.5932" y1="67.7596" x2="24.5932" y2="41.2236" gradientUnits="userSpaceOnUse">
<stop stop-color="#BBE882"/>
<stop offset="0.14" stop-color="#BEE988" stop-opacity="0.92"/>
<stop offset="0.34" stop-color="#C8EC9A" stop-opacity="0.8"/>
<stop offset="0.58" stop-color="#D8F2B7" stop-opacity="0.67"/>
<stop offset="0.83" stop-color="#EEF9E0" stop-opacity="0.53"/>
<stop offset="1" stop-color="white" stop-opacity="0.43"/>
</linearGradient>
<linearGradient id="paint3_linear_418_883" x1="25.1133" y1="66.4369" x2="25.1133" y2="42.7693" gradientUnits="userSpaceOnUse">
<stop stop-color="#48790B"/>
<stop offset="0.82" stop-color="white" stop-opacity="0.43"/>
</linearGradient>
<linearGradient id="paint4_linear_418_883" x1="23.3299" y1="69.8253" x2="23.3299" y2="61.733" gradientUnits="userSpaceOnUse">
<stop stop-color="#5E7814"/>
<stop offset="0.51" stop-color="#8AA21F"/>
<stop offset="1" stop-color="#B1C628"/>
</linearGradient>
<linearGradient id="paint5_linear_418_883" x1="23.0549" y1="68.4729" x2="23.1812" y2="61.9486" gradientUnits="userSpaceOnUse">
<stop stop-color="#82AF10"/>
<stop offset="0.82" stop-color="white" stop-opacity="0"/>
</linearGradient>
<linearGradient id="paint6_linear_418_883" x1="28.3904" y1="70.0857" x2="28.3904" y2="62.7959" gradientUnits="userSpaceOnUse">
<stop stop-color="#5E7814"/>
<stop offset="0.14" stop-color="#758E1A"/>
<stop offset="0.34" stop-color="#8FA620"/>
<stop offset="0.55" stop-color="#A2B824"/>
<stop offset="0.77" stop-color="#ADC327"/>
<stop offset="1" stop-color="#B1C628"/>
</linearGradient>
<linearGradient id="paint7_linear_418_883" x1="26.607" y1="70.6356" x2="26.607" y2="62.3798" gradientUnits="userSpaceOnUse">
<stop stop-color="white"/>
<stop offset="1" stop-color="white" stop-opacity="0"/>
</linearGradient>
<radialGradient id="paint8_radial_418_883" cx="0" cy="0" r="1" gradientUnits="userSpaceOnUse" gradientTransform="translate(62.3681 86.7828) scale(0.906874 0.957259)">
<stop stop-color="#323232"/>
<stop offset="0.29" stop-color="#252525" stop-opacity="0.67"/>
<stop offset="0.83" stop-color="#040404" stop-opacity="0.07"/>
<stop offset="0.89" stop-opacity="0"/>
</radialGradient>
<radialGradient id="paint9_radial_418_883" cx="0" cy="0" r="1" gradientUnits="userSpaceOnUse" gradientTransform="translate(60.9249 86.7828) scale(0.906874 0.957259)">
<stop stop-color="#323232"/>
<stop offset="0.29" stop-color="#252525" stop-opacity="0.67"/>
<stop offset="0.83" stop-color="#040404" stop-opacity="0.07"/>
<stop offset="0.89" stop-opacity="0"/>
</radialGradient>
<linearGradient id="paint10_linear_418_883" x1="51.4189" y1="53.5592" x2="51.4189" y2="6.29825" gradientUnits="userSpaceOnUse">
<stop stop-color="#3D6A06"/>
<stop offset="0.16" stop-color="#588710"/>
<stop offset="0.33" stop-color="#6D9D18"/>
<stop offset="0.51" stop-color="#7BAE1E"/>
<stop offset="0.72" stop-color="#84B721"/>
<stop offset="1" stop-color="#87BA22"/>
</linearGradient>
<linearGradient id="paint11_linear_418_883" x1="49.0113" y1="56.4943" x2="49.0113" y2="6.11235" gradientUnits="userSpaceOnUse">
<stop stop-color="#48790B"/>
<stop offset="0.82" stop-color="white" stop-opacity="0.43"/>
</linearGradient>
<linearGradient id="paint12_linear_418_883" x1="49.1599" y1="53.5517" x2="49.1599" y2="6.26106" gradientUnits="userSpaceOnUse">
<stop stop-color="#BBE882"/>
<stop offset="0.14" stop-color="#BEE988" stop-opacity="0.92"/>
<stop offset="0.34" stop-color="#C8EC9A" stop-opacity="0.8"/>
<stop offset="0.58" stop-color="#D8F2B7" stop-opacity="0.67"/>
<stop offset="0.83" stop-color="#EEF9E0" stop-opacity="0.53"/>
<stop offset="1" stop-color="white" stop-opacity="0.43"/>
</linearGradient>
<linearGradient id="paint13_linear_418_883" x1="37.0103" y1="66.7042" x2="37.0103" y2="46.492" gradientUnits="userSpaceOnUse">
<stop stop-color="#5E7814"/>
<stop offset="0.51" stop-color="#8AA21F"/>
<stop offset="1" stop-color="#B1C628"/>
</linearGradient>
<linearGradient id="paint14_linear_418_883" x1="36.3192" y1="63.3235" x2="36.6313" y2="47.0423" gradientUnits="userSpaceOnUse">
<stop stop-color="#82AF10"/>
<stop offset="0.82" stop-color="white" stop-opacity="0"/>
</linearGradient>
<radialGradient id="paint15_radial_418_883" cx="0" cy="0" r="1" gradientUnits="userSpaceOnUse" gradientTransform="translate(43.1482 78.8716) scale(11.845 2.84279)">
<stop stop-color="#323232" stop-opacity="0.92"/>
<stop offset="0.24" stop-color="#272727" stop-opacity="0.64"/>
<stop offset="0.64" stop-color="#0B0B0B" stop-opacity="0.17"/>
<stop offset="0.79" stop-opacity="0"/>
</radialGradient>
<linearGradient id="paint16_linear_418_883" x1="49.6429" y1="67.3508" x2="49.6429" y2="49.1524" gradientUnits="userSpaceOnUse">
<stop stop-color="#5E7814"/>
<stop offset="0.14" stop-color="#758E1A"/>
<stop offset="0.34" stop-color="#8FA620"/>
<stop offset="0.55" stop-color="#A2B824"/>
<stop offset="0.77" stop-color="#ADC327"/>
<stop offset="1" stop-color="#B1C628"/>
</linearGradient>
<linearGradient id="paint17_linear_418_883" x1="45.177" y1="68.7332" x2="45.177" y2="48.1048" gradientUnits="userSpaceOnUse">
<stop stop-color="white"/>
<stop offset="1" stop-color="white" stop-opacity="0"/>
</linearGradient>
<radialGradient id="paint18_radial_418_883" cx="0" cy="0" r="1" gradientUnits="userSpaceOnUse" gradientTransform="translate(81.1075 77.2074) scale(2.26585 2.39173)">
<stop stop-color="#323232"/>
<stop offset="0.29" stop-color="#252525" stop-opacity="0.67"/>
<stop offset="0.83" stop-color="#040404" stop-opacity="0.07"/>
<stop offset="0.89" stop-opacity="0"/>
</radialGradient>
<radialGradient id="paint19_radial_418_883" cx="0" cy="0" r="1" gradientUnits="userSpaceOnUse" gradientTransform="translate(77.5027 77.2074) scale(2.26317 2.38891)">
<stop stop-color="#323232"/>
<stop offset="0.29" stop-color="#252525" stop-opacity="0.67"/>
<stop offset="0.83" stop-color="#040404" stop-opacity="0.07"/>
<stop offset="0.89" stop-opacity="0"/>
</radialGradient>
<clipPath id="clip0_418_883">
<rect width="80" height="80" fill="white"/>
</clipPath>
</defs>
</svg>
