<svg width="80" height="80" viewBox="0 0 80 80" fill="none" xmlns="http://www.w3.org/2000/svg">
<g clip-path="url(#clip0_418_917)">
<path d="M61.25 0H18.75C8.39466 0 0 8.39466 0 18.75V61.25C0 71.6053 8.39466 80 18.75 80H61.25C71.6053 80 80 71.6053 80 61.25V18.75C80 8.39466 71.6053 0 61.25 0Z" fill="#E7FCFF"/>
<path d="M57.7031 18H22.2969C19.9238 18 18 19.9238 18 22.2969V57.7031C18 60.0762 19.9238 62 22.2969 62H57.7031C60.0762 62 62 60.0762 62 57.7031V22.2969C62 19.9238 60.0762 18 57.7031 18Z" fill="url(#paint0_linear_418_917)"/>
<path d="M53.8484 24H44.1516C42.9633 24 42 24.9114 42 26.0357V40.9643C42 42.0886 42.9633 43 44.1516 43H53.8484C55.0367 43 56 42.0886 56 40.9643V26.0357C56 24.9114 55.0367 24 53.8484 24Z" fill="white"/>
<path d="M35.8484 24H26.1516C24.9633 24 24 24.9158 24 26.0455V51.9545C24 53.0842 24.9633 54 26.1516 54H35.8484C37.0367 54 38 53.0842 38 51.9545V26.0455C38 24.9158 37.0367 24 35.8484 24Z" fill="white"/>
</g>
<defs>
<linearGradient id="paint0_linear_418_917" x1="40" y1="18" x2="40" y2="62" gradientUnits="userSpaceOnUse">
<stop stop-color="#0091E6"/>
<stop offset="1" stop-color="#0079BF"/>
</linearGradient>
<clipPath id="clip0_418_917">
<rect width="80" height="80" fill="white"/>
</clipPath>
</defs>
</svg>
