<svg width="80" height="80" viewBox="0 0 80 80" fill="none" xmlns="http://www.w3.org/2000/svg">
<rect width="80" height="80" rx="15" fill="#2B3A42"/>
<path d="M40.397 9L67.7941 24.4974V55.5026L40.397 71L13 55.5026V24.4974L40.397 9Z" fill="white"/>
<path d="M62.9043 54.4274L41.3071 66.6579V57.1464L54.7679 49.7337L62.9043 54.4274ZM64.3827 53.0937V27.537L56.4841 32.0962V48.5345L64.3827 53.0937ZM17.8077 54.4274L39.4049 66.6475V57.1361L25.9441 49.7337L17.8077 54.4274ZM16.3293 53.0937V27.537L24.2279 32.0962V48.5345L16.3293 53.0937ZM17.2494 25.8828L39.4049 13.3525V22.5538L25.2101 30.3594L25.0964 30.4214L17.2494 25.8828ZM63.4522 25.8828L41.3071 13.3525V22.5538L55.4916 30.3697L55.6053 30.4317L63.4522 25.8828Z" fill="#8ED6FB"/>
<path d="M39.4046 54.9755L26.13 47.6662V33.2026L39.4046 40.8634V54.9755ZM41.3069 54.9755L54.5815 47.6765V33.2026L41.3069 40.8634V54.9755ZM27.0191 31.5278L40.3558 24.1978L53.6821 31.5278L40.3558 39.2196L27.0191 31.5278Z" fill="#1C78C0"/>
</svg>
