<svg width="80" height="80" viewBox="0 0 80 80" fill="none" xmlns="http://www.w3.org/2000/svg">
<g clip-path="url(#clip0_418_1022)">
<rect x="6.10352e-05" width="80" height="80" rx="15" fill="#464342"/>
<g clip-path="url(#clip1_418_1022)">
<path d="M23.8563 12H26.3719V14.4937H28.6906V12H31.2063V19.5469H28.6906V17.0312H26.3938V19.5469H23.8563M34.5313 14.5156H32.3109V12H39.2781V14.5156H37.0469V19.5469H34.5313M40.3828 12H43.0188L44.6375 14.6578L46.2563 12H48.8922V19.5469H46.3766V15.8062L44.6156 18.5187L42.8547 15.8062V19.5469H40.3828M50.1391 12H52.6547V17.0531H56.2203V19.5469H50.1391" fill="white"/>
<path d="M23.7687 63.5154L20.1594 23.0029H59.8406L56.2312 63.4936L39.9672 67.9998" fill="#E44D26"/>
<path d="M40 64.5547V26.3281H56.2203L53.125 60.8906" fill="#F16529"/>
<path d="M27.5312 31.2827H40V36.2483H32.9781L33.4375 41.3343H40V46.289H28.8875M29.1062 48.7827H34.0938L34.4437 52.753L40 54.2405V59.4249L29.8063 56.5812" fill="#EBEBEB"/>
<path d="M52.425 31.2827H39.9781V36.2483H51.9656M51.5172 41.3343H39.9781V46.2999H46.1031L45.5235 52.753L39.9781 54.2405V59.403L50.15 56.5812" fill="white"/>
</g>
</g>
<defs>
<clipPath id="clip0_418_1022">
<rect width="80" height="80" fill="white"/>
</clipPath>
<clipPath id="clip1_418_1022">
<rect width="56" height="56" fill="white" transform="translate(12 12)"/>
</clipPath>
</defs>
</svg>
