<svg width="80" height="80" viewBox="0 0 80 80" fill="none" xmlns="http://www.w3.org/2000/svg">
<g clip-path="url(#clip0_418_869)">
<rect width="80" height="80" rx="15" fill="#F0DB4F"/>
<path d="M21.0349 66.854L27.1571 63.149C28.3382 65.243 29.4126 67.0149 31.9897 67.0149C34.46 67.0149 36.0175 66.0487 36.0175 62.2899V36.728H43.5356V62.3962C43.5356 70.1827 38.9713 73.7271 32.3119 73.7271C26.2979 73.7271 22.8069 70.6124 21.0348 66.8533" fill="#323330"/>
<path d="M47.619 66.0482L53.7403 62.5041C55.3518 65.1357 57.4462 67.0688 61.1512 67.0688C64.2665 67.0688 66.2528 65.5113 66.2528 63.3632C66.2528 60.7857 64.2121 59.8725 60.7753 58.3694L58.8962 57.5635C53.4721 55.2547 49.874 52.3547 49.874 46.2329C49.874 40.5941 54.1703 36.2979 60.8831 36.2979C65.6625 36.2979 69.0993 37.9628 71.5693 42.3125L65.7159 46.0716C64.4268 43.7625 63.0312 42.8497 60.8831 42.8497C58.6812 42.8497 57.285 44.246 57.285 46.0716C57.285 48.3269 58.6812 49.24 61.9031 50.6366L63.7825 51.4419C70.1728 54.181 73.7709 56.9729 73.7709 63.2557C73.7709 70.0225 68.4546 73.7275 61.3125 73.7275C54.3315 73.7275 49.8206 70.3982 47.619 66.0482Z" fill="#323330"/>
</g>
<defs>
<clipPath id="clip0_418_869">
<rect width="80" height="80" fill="white"/>
</clipPath>
</defs>
</svg>
