<svg width="80" height="80" viewBox="0 0 80 80" fill="none" xmlns="http://www.w3.org/2000/svg">
<g clip-path="url(#clip0_418_984)">
<rect width="80" height="80" rx="15" fill="#2C3840"/>
<g clip-path="url(#clip1_418_984)">
<path d="M57.8333 60.1475C57.8333 61.1896 50.0775 62.0001 40.4167 62.0001C30.7559 62.0001 23 61.1896 23 60.1475C23 59.2212 32.1165 58.4106 40.4167 58.4106C50.2135 58.4106 57.8333 59.2212 57.8333 60.1475Z" fill="#1A4658"/>
<path d="M56.7447 47.1789C56.2004 47.1789 55.6562 46.9474 55.248 45.3263L54.1594 42.0842C54.8398 42.0842 55.248 41.8526 55.248 41.8526C54.7037 41.621 53.7512 41.0421 53.0709 40.3474C52.3905 39.5368 50.7577 38.3789 50.7577 38.3789V35.9474C50.7577 34.3263 51.9823 33.0526 51.9823 33.0526C51.1659 33.0526 50.7577 33.7474 50.7577 33.7474V30.2737C50.7577 26.9158 52.7987 25.4105 52.7987 25.4105C52.1184 25.4105 51.7102 25.6421 51.7102 25.6421C51.9823 23.0947 52.9348 22.4 52.9348 22.4C49.5331 21.5895 47.7642 23.3263 47.7642 23.3263C47.356 21.8211 48.8528 20.8947 48.8528 20.8947C47.0839 20.5474 45.7232 21.0105 45.7232 21.0105C45.7232 18.8105 46.8118 18 46.8118 18C41.5051 18 38.6477 21.3579 38.6477 21.3579C38.3756 19.9684 38.9198 18.6947 38.9198 18.6947C33.8853 20.5474 32.5247 24.4842 32.5247 24.4842C32.2525 23.7895 32.1165 22.2842 32.1165 22.2842C32.1165 22.2842 30.0754 25.2947 29.6672 27.2632C29.3951 29.3474 30.0754 35.2526 30.0754 35.2526C30.0754 35.2526 29.6672 34.9053 28.9869 34.7895C28.9869 34.7895 29.8033 35.4842 29.8033 37.1053C29.8033 37.1053 29.5312 36.8737 28.9869 36.9895C28.9869 36.9895 29.8033 37.5684 29.8033 38.6105C29.8033 38.6105 28.9869 39.0737 28.4426 39.6526L27.218 39.7684L28.0344 40.3474C28.0344 40.3474 26.1295 42.0842 25.0409 43.4737C25.0409 43.4737 25.9934 43.0105 26.5377 43.1263C26.5377 43.1263 25.177 44.5158 24.7688 46.8316C24.7688 46.8316 25.4491 46.6 25.7213 46.7158C25.7213 46.7158 24.9049 48.221 24.7688 49.7263L23.9524 50.1895L24.6327 50.6526L23.9524 53.6632L24.7688 53.2L25.7213 54.821C26.4016 55.5158 27.7623 56.0947 28.5787 56.0947H30.2115C29.9394 56.7895 29.6672 57.3684 28.8508 57.3684L28.7148 57.4842C28.7148 57.7158 28.1705 57.7158 28.0344 57.9474C27.6262 58.2947 27.3541 58.9895 27.0819 59.4526L26.9459 60.2632L26.6737 60.7263C27.0819 60.4947 28.3066 60.4947 28.9869 60.3789V60.9579L29.259 61.0737H32.2525L32.9329 60.9579L33.0689 60.6105V60.4947H33.205L34.0214 60.3789L35.5181 60.4947C35.5181 59.9158 35.6542 58.8737 36.8788 55.9789L37.151 55.8632C37.151 55.8632 40.8248 56.9053 44.3625 55.7474C44.6347 56.3263 45.4511 58.2947 45.5872 59.4526L45.7232 60.0316V60.4947L46.9478 60.3789L47.6282 60.4947H47.7642L47.9003 60.6105V60.9579H48.0364L49.8053 60.8421L51.302 61.0737H51.4381L52.2545 61.1895V60.4947L53.7512 60.6105H54.1594V60.7263H54.5676L54.4316 60.2632C54.4316 60.0316 54.2955 59.3368 53.8873 58.9895L54.4316 59.221C54.0234 58.7579 53.8873 58.0632 52.6627 57.7158L53.0709 57.6L52.3905 57.3684L53.0709 56.6737H52.6627L52.3905 56.9053L52.2545 56.7895L52.1184 55.9789C54.5676 55.9789 54.9758 54.821 54.9758 54.821L55.1119 55.2842C56.2004 54.1263 56.0644 52.8526 56.0644 52.8526L56.4726 53.0842C56.6086 51.2316 55.9283 48.1053 55.9283 48.1053H56.4726C56.2004 47.9895 56.0644 47.5263 56.0644 47.5263C56.6086 47.6421 56.7447 47.1789 56.7447 47.1789Z" fill="#EDF7FA"/>
<path d="M33.069 60.4945C33.069 60.4945 33.069 59.5682 32.7969 58.9893C32.7969 58.9893 33.4772 58.9893 33.4772 60.4945H33.069Z" fill="#CDE9EE"/>
<path d="M38.6477 21.3579C38.3756 19.9684 38.9198 18.6947 38.9198 18.6947C33.8853 20.5474 32.5247 24.4842 32.5247 24.4842C32.2525 23.7895 32.1165 22.2842 32.1165 22.2842C32.1165 22.2842 30.0754 25.2947 29.6672 27.2632C29.3951 29.3474 30.0754 35.2526 30.0754 35.2526C30.0754 35.2526 29.6672 34.9053 28.9869 34.7895C28.9869 34.7895 29.8033 35.4842 29.8033 37.1053C29.8033 37.1053 29.5312 36.8737 28.9869 36.9895C28.9869 36.9895 29.8033 37.5684 29.8033 38.6105C29.8033 38.6105 28.9869 39.0737 28.4426 39.6526L27.218 39.7684L28.0344 40.3474C28.0344 40.3474 26.1295 42.0842 25.0409 43.4737C25.0409 43.4737 25.9934 43.0105 26.5377 43.1263C26.5377 43.1263 25.177 44.5158 24.7688 46.8316C24.7688 46.8316 25.4491 46.6 25.7213 46.7158C25.7213 46.7158 24.9049 48.221 24.7688 49.7263L23.9524 50.1895L24.6327 50.6526L23.9524 53.6632L24.7688 53.2L25.7213 54.821C26.4016 55.5158 27.7623 56.0947 28.5787 56.0947H28.7148L28.5787 56.7895L28.4426 56.9053L28.1705 56.6737H27.7623L28.4426 57.3684L27.7623 57.6L28.3066 57.7158C26.9459 58.0632 26.8098 58.7579 26.4016 59.221L26.9459 58.9895C26.5377 59.3368 26.4016 60.0316 26.4016 60.2632L26.2655 60.7263L27.082 60.6105C27.4902 60.6105 28.5787 60.3789 28.9869 60.4947V61.1895L29.5312 61.0737C29.5222 60.5694 29.5677 60.0656 29.6672 59.5684C29.8033 59.1053 30.0754 58.8737 30.3476 58.6421L30.4836 58.5263L30.7558 58.0632C30.8918 57.6 30.8918 56.7895 30.4836 55.9789L31.3 56.9053V55.8632L32.5247 56.7895L33.4771 57.3684V57.4842L34.5657 57.9474H34.7017L35.246 58.2947L35.5181 60.4947C35.6542 58.1789 37.287 55.8632 37.287 55.8632C36.7428 55.7474 33.205 54.7053 31.0279 50.8842C30.8918 50.6526 31.8443 51.2316 31.8443 51.2316C31.0279 49.3789 30.6197 46.4842 30.6197 46.4842L31.164 46.7158C30.6197 45.2105 30.3476 43.4737 30.3476 41.7368C30.2115 32.8211 34.0214 30.8526 34.0214 30.8526L32.6607 30.6211C33.4771 29 36.0624 26.8 36.0624 26.8L32.6607 27.4947C34.8378 22.6316 37.151 21.2421 37.151 21.2421C36.8788 22.4 37.4231 23.6737 37.4231 23.6737C42.3215 18.6947 46.1314 18.9263 46.1314 18.9263L46.8118 18C41.5051 18 38.6477 21.3579 38.6477 21.3579ZM52.2545 60.4947L51.8463 58.5263C51.8463 58.5263 52.6627 58.9895 52.6627 60.4947H52.2545Z" fill="#CDE9EE"/>
<path d="M28.9869 53.8946C29.6673 49.0314 29.8033 39.4209 29.8033 39.4209C28.4427 41.6209 27.4902 45.442 27.4902 45.442L27.7623 46.2525L27.2181 46.1367C26.2656 48.7998 26.9459 52.2735 27.082 53.3156C27.6263 53.663 28.3066 53.7788 28.9869 53.8946ZM27.8984 53.7788L28.4427 56.0946H28.7148L28.9869 54.0104L27.8984 53.7788Z" fill="#ABD8D7"/>
<path d="M47.3562 57.9471H47.2201L47.0841 58.0629C47.9005 57.484 48.0365 56.905 48.0365 56.905L46.5398 57.2524C48.5808 55.7471 48.8529 53.084 48.8529 53.084C48.0365 53.8945 46.948 54.5892 45.9955 55.1682L44.907 55.6314H44.7709L44.0906 55.8629L44.7709 57.0208C44.9355 58.0924 45.2554 59.1425 45.7234 60.1471V60.4945H47.7644L47.9005 60.9577L49.1251 60.8419C49.1251 59.684 49.1251 57.5998 47.3562 57.9471Z" fill="#CDE9EE"/>
<path d="M28.9869 54.242C27.6262 54.1262 26.4016 52.7368 26.4016 52.7368C27.3541 53.6631 28.5787 53.7789 28.5787 53.7789C28.7148 52.7368 27.7623 50.3052 27.7623 50.3052C28.5787 51.1157 28.9869 52.042 29.123 52.8525L28.9869 54.242Z" fill="#83BAC0"/>
<path d="M32.1165 52.3896C32.1165 52.3896 33.205 54.0107 34.1575 54.7054C35.1099 55.516 36.0624 56.5581 36.4706 57.2528L37.287 55.8633C37.287 55.8633 34.2935 55.0528 32.1165 52.3896ZM46.2675 55.6318L46.6757 55.0528L47.4921 54.2423L46.2675 54.937L44.0904 55.8633L44.7708 57.2528L45.9954 55.7475L46.2675 55.6318Z" fill="#ABD8D7"/>
<path d="M31.7082 28.3053H31.164C27.7623 28.5369 25.3131 26.3369 25.3131 26.3369C25.3131 26.3369 25.0409 28.0738 26.5377 29.579C28.0344 31.0843 31.0279 31.4317 31.0279 31.4317C31.164 31.779 30.8918 32.5895 30.8918 32.5895C30.8918 32.5895 31.8443 31.779 31.9804 30.158C32.1164 29.0001 31.7082 28.3053 31.7082 28.3053Z" fill="#545352"/>
<path d="M31.7084 28.3053H31.1641C27.7625 28.5369 25.3132 26.3369 25.3132 26.3369C25.3132 26.3369 26.81 30.158 31.9805 29.8106C31.9805 29.8106 32.2527 29.1159 31.7084 28.3053Z" fill="#6E7979"/>
<path d="M48.7169 28.3053H49.2612C52.6629 28.5369 55.1121 26.3369 55.1121 26.3369C55.1121 26.3369 55.3842 28.0738 53.8875 29.579C52.3907 31.0843 49.3972 31.4317 49.3972 31.4317C49.2612 31.779 49.5333 32.5895 49.5333 32.5895C49.5333 32.5895 48.7169 31.779 48.4448 30.158C48.3087 29.0001 48.7169 28.3053 48.7169 28.3053Z" fill="#545352"/>
<path d="M48.7168 28.3053H49.261C52.6627 28.5369 55.1119 26.3369 55.1119 26.3369C55.1119 26.3369 53.6152 30.158 48.4446 29.8106C48.4446 29.8106 48.3086 29.1159 48.7168 28.3053Z" fill="#6E7979"/>
<path d="M29.9394 41.3896C29.9394 41.3896 27.4902 48.8001 29.9394 53.6633V41.3896ZM54.2955 53.2001C53.2069 54.0107 51.8463 54.0107 51.8463 54.0107C51.8463 53.0844 53.2069 50.7686 53.2069 50.7686C52.7987 50.8844 52.6627 51.1159 52.3905 51.3475V50.537L53.343 49.8422L52.5266 49.3791L53.6151 46.0212L52.6627 46.6001C52.6627 46.6001 52.3905 41.8528 52.5266 39.7686L50.7577 38.3791L51.0299 42.2001C51.5741 44.0528 52.3905 47.8738 51.302 51.3475L51.4381 53.4317L52.1184 55.9791H52.5266L52.3905 54.358C53.7512 54.0107 54.2955 53.2001 54.2955 53.2001ZM42.8658 38.7265C42.8658 39.4212 43.4101 40.1159 44.2265 40.1159C44.9068 40.1159 45.5872 39.4212 45.5872 38.7265C45.5872 37.9159 44.9068 37.2212 44.2265 37.2212C43.4101 37.2212 42.8658 37.9159 42.8658 38.7265Z" fill="#CDE9EE"/>
<path d="M42.866 38.263C42.866 39.0735 43.5463 39.7683 44.2266 39.7683C44.907 39.7683 45.5873 39.0735 45.5873 38.263C45.5873 37.4525 44.907 36.8735 44.2266 36.8735C43.5463 36.8735 42.866 37.4525 42.866 38.263Z" fill="white"/>
<path d="M43.9544 37.5684L43.8184 37.6841C43.8184 37.9157 44.0905 38.0315 44.2266 38.0315C44.3626 38.0315 44.4987 37.9157 44.4987 37.6841L44.7708 38.1473C44.7708 38.6105 44.4987 38.842 44.0905 38.842C43.6823 38.842 43.4102 38.6105 43.4102 38.1473C43.4102 37.9157 43.6823 37.6841 43.9544 37.5684Z" fill="#474746"/>
<path d="M36.4707 38.7265C36.4707 39.4212 37.015 40.1159 37.6953 40.1159C38.5117 40.1159 39.056 39.4212 39.056 38.7265C39.056 37.9159 38.5117 37.2212 37.6953 37.2212C37.015 37.2212 36.4707 37.9159 36.4707 38.7265Z" fill="#CDE9EE"/>
<path d="M36.4707 38.263C36.4707 39.0735 37.015 39.7683 37.8314 39.7683C38.5117 39.7683 39.056 39.0735 39.056 38.263C39.056 37.4525 38.5117 36.8735 37.8314 36.8735C37.015 36.8735 36.4707 37.4525 36.4707 38.263Z" fill="white"/>
<path d="M37.6953 37.5684V37.6841C37.6953 37.9157 37.8314 38.0315 37.9674 38.0315C38.1035 38.0315 38.3757 37.9157 38.3757 37.6841L38.5117 38.1473C38.5117 38.6105 38.2396 38.842 37.8314 38.842C37.5592 38.842 37.2871 38.6105 37.2871 38.1473C37.2871 37.9157 37.4232 37.6841 37.6953 37.5684Z" fill="#474746"/>
<path d="M47.7642 39.7684C47.6282 40 47.356 40.1158 46.5396 40.2315C45.5014 40.3536 44.4483 40.3536 43.4101 40.2315C42.5937 40.1158 42.5937 40 42.3215 39.7684C42.0494 39.421 41.9133 38.3789 41.9133 38.2631C41.9133 38.0315 41.9133 37.9158 42.1855 37.8L45.179 37.3368C46.0462 37.3599 46.9103 37.4373 47.7642 37.5684C47.9003 37.5684 48.0364 37.6842 48.0364 37.9158L47.7642 39.7684ZM39.7362 38.2631C39.7362 38.3789 39.6002 39.421 39.328 39.7684C39.0559 40 39.0559 40.1158 38.2395 40.2315H35.1099C34.2935 40.1158 34.0214 40 33.8853 39.7684L33.6132 37.9158C33.6132 37.6842 33.7493 37.5684 33.8853 37.5684H34.0214L36.4706 37.3368L39.4641 37.8C39.7362 37.9158 39.7362 38.0315 39.7362 38.2631ZM48.7167 36.9894C48.1724 36.8736 47.0839 36.7579 45.8593 36.8736C44.2265 36.8736 42.8658 37.1052 42.0494 37.221L41.3691 37.3368H40.2805L39.6002 37.221C38.7838 37.1052 37.4231 36.8736 35.7903 36.8736C34.5657 36.7579 33.4771 36.8736 32.9329 36.9894C32.9329 36.9894 32.2525 36.9894 31.7083 37.221L31.8443 37.8L32.9329 37.5684L33.205 39.5368L33.3411 39.7684C33.3411 40.1158 33.4771 40.3473 34.0214 40.5789C35.3096 40.858 36.6464 40.9364 37.9674 40.8105L39.4641 40.4631C39.8723 40.2315 40.0084 39.6526 40.1444 39.3052V39.1894L40.2805 38.8421L40.4166 38.3789L40.6887 38.2631C40.7792 38.2545 40.8704 38.2545 40.9609 38.2631L41.233 38.3789L41.3691 38.8421L41.5051 39.1894V39.3052C41.6412 39.6526 41.7773 40.2315 42.1855 40.4631L43.6822 40.8105L45.0429 40.9263L47.6282 40.5789C48.1724 40.3473 48.3085 40.1158 48.3085 39.7684L48.4446 39.5368L48.7167 37.5684L49.8053 37.8L49.9413 37.221C49.3971 36.9894 48.7167 36.9894 48.7167 36.9894Z" fill="#545352"/>
<path d="M38.2397 35.4844C38.2397 35.4844 36.7429 34.7896 35.7905 35.9475C35.7905 35.9475 35.7905 34.7896 36.879 34.6738C38.1036 34.558 38.2397 35.4844 38.2397 35.4844ZM37.5593 33.7475C37.5593 33.7475 36.1987 33.1686 35.6544 34.3265C35.6544 34.3265 35.3823 33.4001 36.3347 33.1686C37.4233 32.937 37.5593 33.7475 37.5593 33.7475ZM43.5463 36.1791C43.5463 36.1791 44.6349 35.6001 45.3152 36.5265C45.3152 36.5265 45.4513 35.6001 44.4988 35.6001C43.5463 35.4844 43.5463 36.1791 43.5463 36.1791ZM44.3627 34.558C44.3627 34.558 45.5873 34.4422 45.7234 35.3686C45.7234 35.3686 46.1316 34.6738 45.4513 34.3265C44.7709 33.9791 44.3627 34.558 44.3627 34.558Z" fill="#A0D1DE"/>
<path d="M38.1034 44.2841C38.1034 44.2841 38.9198 43.8209 39.328 43.8209C39.328 43.8209 39.4641 44.6315 40.0084 45.0946C40.0084 45.0946 40.9609 44.2841 42.0494 44.2841C42.0494 44.2841 42.3215 44.7473 42.7297 44.9788L43.274 45.0946C43.274 45.0946 43.8183 44.863 43.9543 44.2841C43.9543 44.2841 44.0904 45.442 43.274 46.1367L42.0494 45.3262L41.7773 44.9788C41.7773 44.9788 40.1445 45.9051 40.1445 46.4841C40.1445 46.4841 39.0559 45.5578 38.6477 44.863C38.6477 44.863 37.9674 44.9788 37.6952 45.2104C37.6952 45.2104 37.151 44.2841 37.0149 43.5894L38.1034 44.2841Z" fill="#B2DCE5"/>
<path d="M40.825 41.9685L43.9545 42.0843L44.2266 41.6211V42.2C44.2266 42.2 43.5463 42.4316 42.7299 42.4316L43.8184 42.2C43.8184 42.2 42.3217 42.3158 40.825 41.9685Z" fill="#545352"/>
</g>
</g>
<defs>
<clipPath id="clip0_418_984">
<rect width="80" height="80" fill="white"/>
</clipPath>
<clipPath id="clip1_418_984">
<rect width="34.8333" height="44" fill="white" transform="translate(23 18)"/>
</clipPath>
</defs>
</svg>
