<svg width="80" height="80" viewBox="0 0 80 80" fill="none" xmlns="http://www.w3.org/2000/svg">
<g clip-path="url(#clip0_418_981)">
<rect width="80" height="80" rx="15" fill="#3858E9"/>
<path d="M21.127 39.9996C21.127 47.47 25.4682 53.9258 31.7633 56.9851L22.7609 32.3188C21.7137 34.666 21.127 37.2635 21.127 39.9996Z" fill="white"/>
<path d="M52.7398 39.0469C52.7398 36.7144 51.902 35.0991 51.1834 33.8418C50.2268 32.2872 49.3301 30.9707 49.3301 29.4161C49.3301 27.6812 50.6459 26.0662 52.4992 26.0662C52.5829 26.0662 52.6622 26.0767 52.7437 26.0813C49.3861 23.0051 44.9127 21.127 39.9995 21.127C33.4063 21.127 27.6057 24.5098 24.2312 29.6337C24.674 29.647 25.0913 29.6563 25.4457 29.6563C27.4197 29.6563 30.4753 29.4168 30.4753 29.4168C31.4927 29.3568 31.6126 30.8511 30.5963 30.9714C30.5963 30.9714 29.574 31.0917 28.4363 31.1513L35.3089 51.594L39.4389 39.207L36.4986 31.1506C35.4823 31.091 34.5195 30.9707 34.5195 30.9707C33.5026 30.9111 33.6218 29.3561 34.6388 29.4161C34.6388 29.4161 37.7554 29.6556 39.6099 29.6556C41.5835 29.6556 44.6395 29.4161 44.6395 29.4161C45.6575 29.3561 45.7771 30.8504 44.7605 30.9707C44.7605 30.9707 43.736 31.091 42.6005 31.1506L49.4206 51.4385L51.303 45.1479C52.1189 42.5375 52.7398 40.6625 52.7398 39.0469Z" fill="white"/>
<path d="M40.3306 41.6504L34.6682 58.1047C36.3589 58.6018 38.1469 58.8736 39.9995 58.8736C42.1972 58.8736 44.3048 58.4937 46.2666 57.8038C46.2159 57.723 46.17 57.6372 46.1323 57.5438L40.3306 41.6504Z" fill="white"/>
<path d="M56.5593 30.9448C56.6404 31.546 56.6864 32.1913 56.6864 32.8855C56.6864 34.8007 56.3287 36.9536 55.2514 39.6455L49.4867 56.3132C55.0973 53.0412 58.8712 46.9625 58.8712 39.9999C58.8715 36.7187 58.0334 33.6332 56.5593 30.9448Z" fill="white"/>
<path d="M39.9995 18C27.8693 18 18 27.8689 18 39.9995C18 52.1315 27.8693 62 39.9995 62C52.1293 62 62 52.1315 62 39.9995C61.9996 27.8689 52.1293 18 39.9995 18ZM39.9995 60.9916C28.4255 60.9916 19.0087 51.5745 19.0087 39.9995C19.0087 28.4251 28.4252 19.0088 39.9995 19.0088C51.573 19.0088 60.9891 28.4251 60.9891 39.9995C60.9891 51.5745 51.573 60.9916 39.9995 60.9916Z" fill="white"/>
</g>
<defs>
<clipPath id="clip0_418_981">
<rect width="80" height="80" fill="white"/>
</clipPath>
</defs>
</svg>
