<svg width="80" height="80" viewBox="0 0 80 80" fill="none" xmlns="http://www.w3.org/2000/svg">
<g clip-path="url(#clip0_418_810)">
<rect width="80" height="80" rx="15" fill="#777BB3"/>
<path d="M16.7307 31.3267H25.115C27.5758 31.3485 29.3591 32.0998 30.4647 33.5792C31.5703 35.0585 31.935 37.0792 31.5596 39.641C31.4138 40.8117 31.0904 41.9598 30.5898 43.086C30.1099 44.2123 29.4429 45.2279 28.5876 46.1335C27.5446 47.2817 26.4289 48.0104 25.2401 48.3198C24.0513 48.6292 22.8206 48.7835 21.5485 48.7835H17.7944L16.6055 55.0773H12.257L16.7307 31.3267ZM20.391 35.1029L18.5139 45.0404C18.639 45.0623 18.7642 45.0735 18.8893 45.0735C19.0351 45.0735 19.1815 45.0735 19.3273 45.0735C21.3295 45.0954 22.9982 44.886 24.3329 44.4442C25.6675 43.9804 26.5647 42.3685 27.0233 39.6079C27.3988 37.2892 27.0233 35.9529 25.8971 35.5998C24.7915 35.2467 23.4049 35.081 21.7362 35.1029C21.4859 35.1248 21.2463 35.136 21.0167 35.136C20.8083 35.136 20.5893 35.136 20.3597 35.136L20.391 35.1029Z" fill="white"/>
<path d="M36.5132 25H40.8305L39.6104 31.3269H43.4897C45.617 31.3713 47.2019 31.835 48.245 32.7181C49.3086 33.6012 49.6215 35.28 49.1835 37.7531L47.0874 48.7837H42.7076L44.7098 38.25C44.9181 37.1456 44.8556 36.3619 44.5221 35.8981C44.1886 35.4344 43.469 35.2025 42.3634 35.2025L38.8908 35.1694L36.3255 48.7837H32.0082L36.5132 25Z" fill="white"/>
<path d="M53.8195 31.3267H62.2038C64.6647 31.3485 66.4479 32.0998 67.5535 33.5792C68.6591 35.0585 69.0239 37.0792 68.6485 39.641C68.5027 40.8117 68.1792 41.9598 67.6787 43.086C67.1988 44.2123 66.5318 45.2279 65.6764 46.1335C64.6334 47.2817 63.5178 48.0104 62.329 48.3198C61.1402 48.6292 59.9094 48.7835 58.6374 48.7835H54.8832L53.6944 55.0773H49.3458L53.8195 31.3267ZM57.4799 35.1029L55.6028 45.0404C55.7279 45.0623 55.853 45.0735 55.9782 45.0735C56.124 45.0735 56.2704 45.0735 56.4162 45.0735C58.4184 45.0954 60.0871 44.886 61.4217 44.4442C62.7563 43.9804 63.6536 42.3685 64.1122 39.6079C64.4876 37.2892 64.1122 35.9529 62.986 35.5998C61.8804 35.2467 60.4938 35.081 58.8251 35.1029C58.5748 35.1248 58.3352 35.136 58.1055 35.136C57.8972 35.136 57.6782 35.136 57.4486 35.136L57.4799 35.1029Z" fill="white"/>
</g>
<defs>
<clipPath id="clip0_418_810">
<rect width="80" height="80" fill="white"/>
</clipPath>
</defs>
</svg>
