<svg width="80" height="80" viewBox="0 0 80 80" fill="none" xmlns="http://www.w3.org/2000/svg">
<path d="M61.25 0H18.75C8.39466 0 0 8.39466 0 18.75V61.25C0 71.6053 8.39466 80 18.75 80H61.25C71.6053 80 80 71.6053 80 61.25V18.75C80 8.39466 71.6053 0 61.25 0Z" fill="#353535"/>
<path d="M39.9704 16C43.2051 16 45.8138 18.5148 45.8138 21.6331C45.8138 24.7515 43.2051 27.2663 39.9704 27.2663C36.7356 27.2663 34.1269 24.7515 34.1269 21.6331C34.1269 18.6154 36.7356 16 39.9704 16ZM34.1269 65.1893C33.6051 66.2959 32.5616 66.8994 31.4138 66.8994C30.9964 66.8994 30.579 66.7988 30.1616 66.5976C28.5964 65.8935 27.9703 64.1834 28.7008 62.6746C28.7008 62.6746 34.4399 50 35.4834 45.3728C35.9008 43.7633 36.1095 39.4379 36.2138 37.426C36.2138 36.7219 35.7964 36.1183 35.1703 35.9172L22.2312 32.2959C20.5616 31.7929 19.6225 30.0828 20.1442 28.574C20.666 27.0651 22.4399 26.3609 24.0051 26.7633C24.0051 26.7633 35.7964 30.3846 39.9704 30.3846C44.1443 30.3846 56.1443 26.6627 56.1443 26.6627C57.7095 26.2604 59.4834 27.1657 59.9008 28.6746C60.3182 30.1834 59.3791 31.8935 57.8139 32.2959L44.9791 36.0178C44.353 36.2189 43.8312 36.8225 43.9356 37.5266C44.0399 39.5385 44.2486 43.8639 44.666 45.4734C45.7095 50.1006 51.4487 62.7752 51.4487 62.7752C52.1791 64.284 51.4486 65.9941 49.9878 66.6982C49.5704 66.8994 49.153 67 48.7356 67C47.5878 67 46.4399 66.3965 46.0225 65.2899L39.9704 53.1183L34.1269 65.1893Z" fill="#FF7262"/>
</svg>
